<?xml version="1.0" encoding="utf-8"?>
<!-- Generator: Adobe Illustrator 24.3.0, SVG Export Plug-In . SVG Version: 6.00 Build 0)  -->
<svg version="1.1" id="Livello_1" xmlns="http://www.w3.org/2000/svg" xmlns:xlink="http://www.w3.org/1999/xlink" x="0px" y="0px"
	 viewBox="0 0 1141.33 392" style="enable-background:new 0 0 1141.33 392;" xml:space="preserve">
<style type="text/css">
	.st0{fill:none;stroke:url(#SVGID_1_);stroke-width:10;stroke-linecap:round;stroke-linejoin:round;stroke-miterlimit:10;}
	.st1{fill:url(#SVGID_2_);}
	.st2{fill:#004C6A;}
	.st3{fill:url(#SVGID_3_);}
</style>
<g>
	<linearGradient id="SVGID_1_" gradientUnits="userSpaceOnUse" x1="178.4093" y1="12.5785" x2="178.4093" y2="374.7548">
		<stop  offset="0" style="stop-color:#DA080F"/>
		<stop  offset="0.452" style="stop-color:#DA080F"/>
		<stop  offset="1" style="stop-color:#830106"/>
	</linearGradient>
	<path class="st0" d="M337.33,298.16c-32.07,43.43-83.62,71.59-141.75,71.59c-97.25,0-176.09-78.84-176.09-176.09
		S98.33,17.58,195.58,17.58c53.55,0,101.51,23.9,133.8,61.61"/>
	<g>
		<linearGradient id="SVGID_2_" gradientUnits="userSpaceOnUse" x1="195.5805" y1="89.1757" x2="195.5805" y2="298.1576">
			<stop  offset="0" style="stop-color:#DA080F"/>
			<stop  offset="0.452" style="stop-color:#DA080F"/>
			<stop  offset="1" style="stop-color:#830106"/>
		</linearGradient>
		<path class="st1" d="M306.59,175.96c-0.08,0-0.16,0-0.24,0c0-5.37-0.01-10.75,0-16.12c0.05-16.73,0.49-33.48,0-50.2
			c-0.28-9.59-6.12-16.14-15.14-19.16c-9.04-3.03-17.12-0.71-23.74,6.16c-4.71,4.9-6.17,10.96-6.17,17.63
			c0.01,39.07-0.04,78.14-0.15,117.2c-0.03,10.88-9.12,19.76-20.27,20.09c-11.59,0.35-21.2-8.08-21.79-19.1
			c-0.29-5.36-0.75-10.71-0.85-16.07c-0.24-12.97-9.36-22.55-21.96-22.87c-12.3-0.31-22.48,9.23-23.14,21.9
			c-0.28,5.36-0.09,10.75-0.2,16.12c-0.24,11.68-10.12,21.06-21.8,20.75c-12.16-0.32-21.14-9.26-21.14-21.1
			c-0.01-38.86-0.05-77.73,0.04-116.59c0.02-7.71-2.33-14.33-8.38-19.13c-7.21-5.72-15.3-7.03-23.8-2.96
			c-8.66,4.14-12.98,11.15-13.01,20.76c-0.11,39.48-0.24,78.95-0.3,118.43c-0.03,16.38,5.55,30.77,16.21,43.1
			c23.17,26.79,62.6,31.07,91.2,10c2.53-1.87,4.22-3.59,7.85-0.84c15.03,11.39,32.08,15.23,50.81,12.74
			c30.66-4.08,55.9-32.31,55.95-63.08C306.62,214.41,306.59,195.19,306.59,175.96z M217.01,128.12c0-4.75,0.01-9.5,0-14.25
			c-0.03-13.34-9.22-23.3-21.78-23.62c-12.24-0.31-22.65,9.06-23.24,21.78c-0.5,10.92-0.54,21.91,0.03,32.82
			c0.67,12.7,11.31,22,23.51,21.45c12.37-0.55,21.41-10.36,21.46-23.31C217.02,138.03,217,133.07,217.01,128.12z"/>
	</g>
	<path class="st2" d="M735.37,82.05c-2.83-2.75-6.17-4.13-10.03-4.13h-0.35c-3.85,0-7.19,1.37-10.02,4.13
		c-2.83,2.83-4.25,6.21-4.25,10.14v40.13c-1.4,9.19-7.61,23.2-32.44,22.93c-27.07-0.3-32.13-14.97-32.9-22.76v-40.3
		c0-3.93-1.42-7.31-4.25-10.14c-2.83-2.75-6.17-4.13-10.02-4.13h-0.35c-3.85,0-7.2,1.37-10.03,4.13c-2.83,2.83-4.24,6.21-4.24,10.14
		v155.68c0,4.01,1.41,7.35,4.24,10.02c2.83,2.83,6.17,4.25,10.03,4.25h0.35c3.85,0,7.19-1.42,10.02-4.25
		c2.83-2.67,4.25-6.01,4.25-10.02v-38.63c0.84-9,6.06-25.12,32.67-24.82c26.61,0.3,31.83,14.5,32.67,22.39v41.06
		c0,4.01,1.42,7.35,4.25,10.02c2.83,2.83,6.17,4.25,10.02,4.25h0.35c3.85,0,7.2-1.42,10.03-4.25c2.83-2.67,4.24-6.01,4.24-10.02
		V92.19C739.62,88.26,738.2,84.88,735.37,82.05z"/>
	<path class="st2" d="M440.3,146.35c13.21,13.21,19.81,29.11,19.81,47.71v53.33c0,3.99-1.41,7.31-4.22,9.96
		c-2.81,2.81-6.14,4.22-9.96,4.22h-0.35c-3.83,0-7.15-1.41-9.96-4.22c-2.81-2.65-4.22-5.98-4.22-9.96
		c-8.91,9.46-21.84,14.18-38.8,14.18c-18.6,0-34.5-6.6-47.71-19.81c-13.21-13.21-19.81-29.11-19.81-47.71s6.6-34.5,19.81-47.71
		c13.21-13.2,29.11-19.81,47.71-19.81C411.19,126.55,427.09,133.15,440.3,146.35z M365.04,166.63c-7.5,7.58-11.25,16.72-11.25,27.43
		c0,10.78,3.75,19.97,11.25,27.55c7.58,7.5,16.76,11.25,27.55,11.25c10.78,0,19.93-3.75,27.43-11.25
		c7.58-7.58,11.37-16.76,11.37-27.55c0-10.71-3.79-19.85-11.37-27.43c-7.58-7.58-16.72-11.37-27.43-11.37
		C381.81,155.26,372.62,159.05,365.04,166.63z"/>
	<path class="st2" d="M497.54,111.31c-4.53,0-8.4-1.6-11.6-4.81c-3.2-3.2-4.8-7.07-4.8-11.6c0-4.45,1.6-8.28,4.8-11.49
		c3.2-3.2,7.07-4.8,11.6-4.8c4.45,0,8.28,1.6,11.49,4.8c3.28,3.13,4.92,6.96,4.92,11.49c0,4.61-1.64,8.48-4.92,11.6
		C505.83,109.71,502,111.31,497.54,111.31z M497.66,126.55c3.99,0,7.31,1.41,9.97,4.22c2.81,2.81,4.22,6.17,4.22,10.08V247.4
		c0,3.99-1.41,7.31-4.22,9.96c-2.66,2.81-5.98,4.22-9.97,4.22h-0.23c-3.91,0-7.27-1.41-10.08-4.22c-2.81-2.65-4.22-5.98-4.22-9.96
		V140.85c0-3.91,1.41-7.27,4.22-10.08c2.81-2.82,6.17-4.22,10.08-4.22H497.66z"/>
	<path class="st2" d="M549.52,78.49c3.83,0,7.15,1.37,9.96,4.1c2.81,2.81,4.22,6.17,4.22,10.08v33.87h17.58
		c3.83,0,7.15,1.41,9.97,4.22c2.81,2.81,4.22,6.17,4.22,10.08v0.23c0,3.99-1.41,7.31-4.22,9.96c-2.82,2.82-6.14,4.22-9.97,4.22
		H563.7v69.51c0,2.27,0.78,4.18,2.34,5.74c1.56,1.56,3.52,2.35,5.86,2.35h9.38c3.83,0,7.15,1.41,9.97,4.22
		c2.81,2.82,4.22,6.18,4.22,10.08v0.23c0,3.99-1.41,7.31-4.22,9.96c-2.82,2.81-6.14,4.22-9.97,4.22h-9.38
		c-10.16,0-18.87-3.59-26.14-10.78c-7.19-7.27-10.78-15.94-10.78-26.02V92.67c0-3.91,1.41-7.27,4.22-10.08
		c2.81-2.73,6.13-4.1,9.96-4.1H549.52z"/>
	<path class="st2" d="M889.46,165.93c0.94,1.96,1.41,3.95,1.41,5.98c0,1.64-0.31,3.28-0.94,4.92c-1.33,3.67-3.83,6.33-7.5,7.97
		c-10.94,4.92-25.32,11.41-43.14,19.46c-22.11,10-35.09,15.9-38.92,17.7c5.94,7.5,15.2,11.25,27.78,11.25
		c8.36,0,15.94-2.46,22.74-7.38c6.64-4.84,11.29-11.1,13.95-18.75c2.26-6.41,6.8-9.61,13.6-9.61c4.84,0,8.71,2.03,11.6,6.1
		c1.8,2.5,2.7,5.12,2.7,7.85c0,1.64-0.31,3.32-0.94,5.04c-4.61,13.36-12.7,24.15-24.26,32.35c-11.72,8.52-24.85,12.78-39.39,12.78
		c-18.6,0-34.5-6.6-47.71-19.81c-13.21-13.21-19.81-29.11-19.81-47.71s6.6-34.5,19.81-47.71c13.2-13.2,29.11-19.81,47.71-19.81
		c13.44,0,25.71,3.67,36.81,11.02C875.99,144.75,884.15,154.21,889.46,165.93z M828.16,155.5c-10.78,0-19.97,3.79-27.55,11.37
		c-7.5,7.58-11.25,16.76-11.25,27.55v0.82l65.52-29.42C849.1,158.94,840.19,155.5,828.16,155.5z"/>
	<path class="st2" d="M972.15,126.55c3.91,0,7.27,1.41,10.08,4.22c2.73,2.81,4.1,6.17,4.1,10.08v0.23c0,3.91-1.37,7.23-4.1,9.96
		c-2.81,2.82-6.17,4.22-10.08,4.22h-6.68c-6.41,0-11.84,2.23-16.29,6.68c-4.38,4.45-6.6,9.88-6.68,16.29v69.16
		c0,3.99-1.41,7.31-4.22,9.96c-2.81,2.81-6.14,4.22-9.96,4.22h-0.35c-3.83,0-7.15-1.41-9.96-4.22c-2.81-2.65-4.22-5.98-4.22-9.96
		v-69.16c0.16-14.3,5.2-26.49,15.12-36.57c10.08-10.08,22.27-15.12,36.57-15.12H972.15z"/>
	<path class="st2" d="M1057.66,126.55c18.6,0,34.5,6.6,47.71,19.81c13.2,13.21,19.81,29.11,19.81,47.71s-6.6,34.5-19.81,47.71
		c-13.21,13.21-29.11,19.81-47.71,19.81c-18.6,0-34.5-6.6-47.71-19.81c-13.21-13.21-19.81-29.11-19.81-47.71s6.6-34.5,19.81-47.71
		C1023.16,133.15,1039.06,126.55,1057.66,126.55z M1057.66,155.5c-10.78,0-19.97,3.79-27.55,11.37
		c-7.5,7.58-11.25,16.76-11.25,27.55c0,10.71,3.75,19.85,11.25,27.43c7.58,7.58,16.76,11.37,27.55,11.37
		c10.71,0,19.85-3.79,27.43-11.37c7.58-7.58,11.37-16.72,11.37-27.43c0-10.78-3.79-19.96-11.37-27.55
		C1077.51,159.29,1068.36,155.5,1057.66,155.5z"/>
</g>
</svg>
