<svg xmlns="http://www.w3.org/2000/svg" xmlns:xlink="http://www.w3.org/1999/xlink" width="300" height="300" viewBox="0 0 300 300">
  <defs>
    <clipPath id="clip-Client">
      <rect width="300" height="300"/>
    </clipPath>
  </defs>
  <g id="Client" clip-path="url(#clip-Client)">
    <g id="Raggruppa_148" data-name="Raggruppa 148" transform="translate(26)">
      <path id="Tracciato_108" data-name="Tracciato 108" d="M206.242,163.23c25.391,0,46.943-19.249,54.619-45.821A85.528,85.528,0,0,0,278.043,64.8C277.1,26.477,242.851.319,205.474,7.286A56.327,56.327,0,0,1,169.751,2.74a8.286,8.286,0,0,0-9.211,1.417C143.948,19.391,134.5,41.829,134.5,65.684a85.242,85.242,0,0,0,17.242,51.844C159.359,144.04,180.911,163.23,206.242,163.23Zm0-16.71c-22.556,0-40.919-22.556-40.919-50.249,0-13.4,4.31-25.981,11.868-35.369,17.537,24.268,40.919,34.838,69.793,31.531.059,1.3.119,2.539.119,3.838C247.161,123.964,228.8,146.52,206.242,146.52ZM168.1,20.159a72.808,72.808,0,0,0,40.683,3.425c26.925-5.255,51.312,13.817,52.552,41.274-.177,4.429-.59,8.444-1.122,12.282a8.381,8.381,0,0,0-7.735-2.48c-29.465,5.964-50.663-3.9-66.723-31.177h0a8.333,8.333,0,0,0-12.4-2.244h0c-10.274,8.326-17.714,20.194-21.611,33.6a68.289,68.289,0,0,1-.65-9.211C151.151,48.383,157.233,32.086,168.1,20.159Z" transform="translate(-81.889 -1.932)" fill="#005067"/>
      <path id="Tracciato_109" data-name="Tracciato 109" d="M261.039,319.5a263.653,263.653,0,0,0-182.514,0A51.24,51.24,0,0,0,45.4,367.62v49.363a8.316,8.316,0,0,0,8.326,8.326H285.839a8.316,8.316,0,0,0,8.326-8.326V367.62A51.383,51.383,0,0,0,261.039,319.5ZM197.386,321.5l-27.634,51.785L142.178,321.5A246.612,246.612,0,0,1,197.386,321.5ZM86.024,408.658H61.992V367.679a34.931,34.931,0,0,1,12.046-26.394A120.531,120.531,0,0,1,85.965,393.6v15.056Zm150.746-15.116v15.116H102.734V393.542a137.47,137.47,0,0,0-13.876-59.932A246.728,246.728,0,0,1,124.7,324.1l37.731,70.857a8.316,8.316,0,0,0,14.7,0L214.864,324.1a246.734,246.734,0,0,1,35.841,9.507A136.7,136.7,0,0,0,236.771,393.542Zm40.742,15.116H253.481V393.542a121.375,121.375,0,0,1,11.927-52.315,34.93,34.93,0,0,1,12.045,26.394v41.038Z" transform="translate(-45.4 -125.309)" fill="#005067"/>
    </g>
  </g>
</svg>
