<svg xmlns="http://www.w3.org/2000/svg" xmlns:xlink="http://www.w3.org/1999/xlink" width="300" height="300" viewBox="0 0 300 300">
  <defs>
    <clipPath id="clip-cloud">
      <rect width="300" height="300"/>
    </clipPath>
  </defs>
  <g id="cloud" clip-path="url(#clip-cloud)">
    <path id="Tracciato_4699" data-name="Tracciato 4699" d="M727.593-34.727c8.95-36.372,40.519-63.1,77.767-63.1,32.466,0,60.595,20.271,73.219,49.584A55.978,55.978,0,0,1,897.9-51.668c32.082,0,58.462,27.2,58.462,61.094S929.984,70.52,897.9,70.52h-83.09a11.978,11.978,0,0,1,0-23.956H897.9c19.232,0,34.506-16.817,34.506-37.138S917.135-27.712,897.9-27.712a32.625,32.625,0,0,0-19.208,6.3,11.973,11.973,0,0,1-11.2,1.523,11.982,11.982,0,0,1-7.484-8.48c-6.118-25.988-28.173-45.5-54.649-45.5-31.181,0-56.182,26.978-56.35,59.887A11.973,11.973,0,0,1,741.444-2.91a11.978,11.978,0,0,1-13.1-2.89,27.138,27.138,0,0,0-19.707-8.678c-15.778,0-28.245,13.852-28.245,30.521,0,16.606,12.371,30.415,28.024,30.52h34.291a11.978,11.978,0,0,1,0,23.956H708.3c-28.469-.19-51.86-24.352-51.86-54.476,0-30.244,23.577-54.477,52.2-54.477A50.07,50.07,0,0,1,727.593-34.727Z" transform="translate(-656.365 163.829)" fill="#fcfcfc" fill-rule="evenodd"/>
  </g>
</svg>
