<svg xmlns="http://www.w3.org/2000/svg" xmlns:xlink="http://www.w3.org/1999/xlink" width="300" height="300" viewBox="0 0 300 300">
  <defs>
    <clipPath id="clip-Esperti">
      <rect width="300" height="300"/>
    </clipPath>
  </defs>
  <g id="Esperti" clip-path="url(#clip-Esperti)">
    <g id="Raggruppa_10236" data-name="Raggruppa 10236" transform="translate(-160 -373)">
      <ellipse id="Ellisse_634" data-name="Ellisse 634" cx="119.017" cy="119.017" rx="119.017" ry="119.017" transform="translate(221.965 423.828)" fill="#00a3e2"/>
      <path id="Tracciato_3788" data-name="Tracciato 3788" d="M5341.889,1958.81c-10.875-4.081-13.607-8.078-13.6-19.38,0-3.836.064-7.675-.07-11.507-.258-7.413,3.119-12.827,9.771-15.445,3.625-1.429,3.814-3.5,4.059-6.568a77.021,77.021,0,0,1,77.854-71.18c38.9.561,71.281,30.984,74.938,70.6.332,3.614.832,5.948,4.816,7.537,6.127,2.443,9.225,7.585,9.092,14.438-.1,5.188.684,10.506-.238,15.527-.756,4.151-2.588,8.828-5.508,11.654a11.68,11.68,0,0,0-3.953,8.391c-.326,3.468-2.158,6.782-3.189,10.206a16.6,16.6,0,0,0-.73,4.518c-.086,6.54-.023,13.084-.064,19.627-.053,8.324-.832,9-9.461,8.971-12.859-.038-25.719-.094-38.572.108-1.771.029-3.521,1.5-4.967,3.315,16.232,1.59,30.471,6.164,42.111,17.408,10.34,9.99,15.938,22.213,17.516,36.35.883,7.92-.725,9.6-8.8,9.6q-74.118.035-148.229.006c-8.916,0-10.529-1.983-9.256-11.087,4.07-29.038,25.787-49.1,55.18-50.968,1.113-.07,2.227-.131,3.344-.2l.982-1.764c-1.477-.931-2.936-2.643-4.426-2.668-13.08-.229-26.168-.15-39.256-.179-8.9-.017-9.324-.447-9.332-9.653C5341.877,1984.073,5341.889,1971.674,5341.889,1958.81Zm90.82-48.263a36.14,36.14,0,0,0,3.822.473c9.926.039,19.854-.113,29.777.1,6.613.142,7.631,2.151,5.32,8.33a21.4,21.4,0,0,0-.91,6.576c-.457,12.293-.822,24.591-1.219,36.895h22.314c-2.654-2.416-3.838-4.411-5.012-4.4-5.85.033-6.527-3.574-6.5-8.08.055-8.572-.168-17.149.07-25.717.145-5.092-2.072-11.046,4.457-14.408.771-.4.762-2.94.578-4.427a82.679,82.679,0,0,0-1.887-11.3,67.53,67.53,0,0,0-67.8-50.312c-30.533.942-57.07,23.834-63.053,54.4-1.041,5.338-3.5,10.888,2.982,14.888.9.553,1.125,2.986.9,4.429-2.219,14.1,5.441,29.38-5.064,42.468v36.007h14.75c0-2.932-.611-5.6.166-7.777.834-2.324,2.975-4.181,4.549-6.241,1.584,2.108,3.734,4.015,4.6,6.387.848,2.327.387,5.13.508,7.9h20.7c-2.8-3.492-4.086-6.148-6.2-7.541-12.486-8.232-21.076-19.273-23.158-34.157-1.332-9.528-.752-19.317-1.174-28.983-.105-2.4-.223-5.066-1.291-7.108-2.711-5.164-.35-7.187,4.322-7.807a67.753,67.753,0,0,1,8.789-.147c14.83-.011,29.66,0,45.186,0,0-3.251-.613-6.1.18-8.475.709-2.112,2.971-3.7,4.549-5.522,1.58,1.772,3.865,3.311,4.559,5.38C5433.316,1904.743,5432.709,1907.6,5432.709,1910.547ZM5345.1,2063.02h146.744c-3.8-25.779-22.906-42.617-48.2-42.477a16.343,16.343,0,0,0-9.424,3.541c-9.627,7.816-22.057,7.788-31.59-.054a16.055,16.055,0,0,0-9.395-3.487C5367.824,2020.5,5348.918,2037.2,5345.1,2063.02ZM5462,1920.781h-86.264c0,8.608-.074,16.712.018,24.814.209,18.12,10.787,33.1,27.8,39.283,16.641,6.047,38.525.378,46.23-11.922-5.439,1.033-10.959-2.794-15.311,3.578-4.877,7.148-14.521,7.8-20.8,2.231-5.928-5.254-5.943-15.757-.033-21.167,6.172-5.647,15.211-4.574,21.021,1.9,1.766,1.971,4.869,3.186,7.57,3.756,3.029.637,6.342-.206,9.439.236,4.854.692,7.5-1.483,7.875-5.925C5460.543,1945.5,5461.184,1933.411,5462,1920.781Zm-21.385,75.645h44.5v-23.534c-6.539,0-12.6-.218-18.631.13-1.9.108-3.982,1.417-5.518,2.719q-7.91,6.7-15.447,13.836C5443.875,1991.135,5442.813,1993.3,5440.613,1996.426Zm-8.021-.376h-28.281c.338,7.886-2.3,16.494,6.236,22.008,4.932,3.188,10.219,3.458,15.289.395C5434.793,2013.041,5432.531,2004.208,5432.592,1996.05Zm57.59-75.365v28.255c5.553.54,8.979-1.181,9.186-6.967.164-4.691.174-9.4.016-14.086C5499.2,1922.322,5496.207,1919.932,5490.182,1920.685Zm-143.3.023c-6.51-1.011-9.213,1.936-9.336,7.766-.09,4.283-.176,8.575.014,12.853.268,6.308,2.389,7.839,9.322,6.933Zm76.406,40.712c-2.23,3.126-4.637,5.03-4.453,6.641.193,1.735,2.818,4.44,4.375,4.436,1.605,0,4.264-2.625,4.494-4.359C5427.908,1966.54,5425.5,1964.6,5423.283,1961.42Z" transform="translate(-5168.203 -1449.721)" fill="#005067" stroke="#005067" stroke-width="3"/>
    </g>
  </g>
</svg>
