<svg xmlns="http://www.w3.org/2000/svg" xmlns:xlink="http://www.w3.org/1999/xlink" width="300" height="300" viewBox="0 0 300 300">
  <defs>
    <clipPath id="clip-Offerte">
      <rect width="300" height="300"/>
    </clipPath>
  </defs>
  <g id="Offerte" clip-path="url(#clip-Offerte)">
    <g id="Raggruppa_10293" data-name="Raggruppa 10293" transform="translate(0.459 0.416)">
      <g id="Raggruppa_10239" data-name="Raggruppa 10239">
        <path id="Tracciato_4630" data-name="Tracciato 4630" d="M4492.728,2564.173c.66-7.933,1.318-16.473,2.156-25a6.885,6.885,0,0,0-2.422-6.236c-5.861-5.411-11.555-11.012-17.225-16.629-6.166-6.095-7.012-13.412-2.451-20.722,4.277-6.863,8.58-13.719,13.025-20.481a5.834,5.834,0,0,0,.717-5.882c-2.775-7.442-5.3-14.989-7.881-22.508-2.928-8.527.016-16.287,7.865-20.649,7.188-3.969,14.346-7.944,21.613-11.769a5.558,5.558,0,0,0,3.225-4.627c1.271-8.456,2.711-16.887,4.238-25.306a15.629,15.629,0,0,1,14.578-12.48c8.324-.289,16.662-.53,25-.595a5.838,5.838,0,0,0,5.324-2.642c4.721-6.574,9.609-13.015,14.434-19.517,5.115-6.871,12.713-8.82,20.537-5.17,7.205,3.365,14.4,6.755,21.551,10.284a5.514,5.514,0,0,0,5.58.1c7.109-3.586,14.338-6.931,21.527-10.32,8.434-3.973,15.182-2.32,20.7,5.074,4.914,6.573,9.705,13.247,14.8,19.7a7.153,7.153,0,0,0,4.6,2.393c8.67.623,17.354.885,26.031,1.367a14.8,14.8,0,0,1,13.9,12.206c1.584,8.532,2.982,17.092,4.277,25.655a5.7,5.7,0,0,0,3.24,4.645c6.965,3.852,13.84,7.868,20.73,11.845,7.471,4.294,10.262,11.1,7.729,19.375-2.4,7.832-4.881,15.64-7.6,23.367a6.287,6.287,0,0,0,.869,6.225c4.494,6.863,8.813,13.839,13.211,20.766,4.432,7,3.668,13.449-2.316,19.279-5.965,5.826-12.045,11.543-17.859,17.514a7.9,7.9,0,0,0-2.082,5.171c.322,7.124.926,14.249,1.736,21.341,1.465,12.428-2.234,18.226-14.209,21.606-7.076,2-14.191,3.853-21.187,6.067a7.1,7.1,0,0,0-3.893,3.4c-3.248,7.124-6.15,14.414-9.23,21.631-3.828,9-10.486,12.375-20.047,10.316-8-1.721-16.018-3.434-24.068-4.937a5.835,5.835,0,0,0-4.092,1.166c-6.184,4.849-12.238,9.846-18.3,14.852-8.121,6.7-14.787,6.706-23.006-.044-5.982-4.905-11.908-9.9-18.035-14.611a7.155,7.155,0,0,0-5.066-1.109c-8.064,1.455-16.059,3.249-24.084,4.9-8.49,1.749-15.607-1.994-19.041-10.044-3.08-7.209-6.225-14.386-9.1-21.671a6.566,6.566,0,0,0-5.018-4.358q-11.373-2.955-22.66-6.216C4496.741,2578.494,4492.534,2572.886,4492.728,2564.173Zm12.8-.306c-.885,3.232,1.2,4.483,4.236,5.3,9.4,2.51,18.777,5.082,28.113,7.86a6.535,6.535,0,0,1,3.643,3.169c3.908,8.789,7.688,17.638,11.24,26.58,1.367,3.462,3.434,4.479,6.893,3.739,9.512-2.059,19.018-4.142,28.57-5.947a7.1,7.1,0,0,1,5.105,1.187c7.688,6.007,15.246,12.2,22.717,18.471,2.484,2.095,4.318,2.4,7.02.076,7.293-6.3,14.957-12.17,22.314-18.4a6.332,6.332,0,0,1,6.168-1.331c9.625,2.115,19.314,3.933,28.908,6.144,2.982.692,4.27-.145,5.355-2.822,3.674-9.018,7.623-17.92,11.266-26.95a6.617,6.617,0,0,1,4.994-4.358c9.189-2.388,18.324-5.033,27.484-7.454,3-.788,4.373-2.175,4.053-5.52-.949-9.947-1.5-19.931-2.5-29.865a5.674,5.674,0,0,1,2-5.251c7.229-6.907,14.354-13.947,21.6-20.835,1.8-1.713,1.986-3.088.611-5.207-5.389-8.27-10.543-16.689-15.953-24.943a6.461,6.461,0,0,1-.74-6.276c3.1-9.091,5.967-18.27,9.094-27.355,1.063-3.064.709-4.857-2.451-6.546-8.6-4.6-16.984-9.545-25.379-14.507a5.725,5.725,0,0,1-2.662-3.316c-1.85-10.044-3.578-20.107-5.041-30.211-.451-3.027-1.5-4.3-4.664-4.366-9.754-.2-19.5-.72-29.254-.937a6.31,6.31,0,0,1-5.572-2.976c-5.791-8.009-11.893-15.785-17.586-23.851-1.9-2.686-3.49-2.778-6.2-1.436-8.49,4.234-17.143,8.19-25.658,12.4a6.611,6.611,0,0,1-6.578.08c-8.6-4.314-17.354-8.314-26-12.549-2.564-1.262-4.205-.984-5.99,1.492-5.8,8.126-11.934,16.026-17.787,24.123a5.887,5.887,0,0,1-5.33,2.7c-9.764.068-19.518.358-29.295.519-2.6.036-4.182.913-4.641,3.775-1.535,9.851-3.393,19.661-4.809,29.527a5.772,5.772,0,0,1-3.473,4.813c-8.484,4.548-16.936,9.167-25.379,13.787-3.707,2.038-4.229,3.462-2.822,7.555,3.031,8.753,5.99,17.525,9.191,26.21a6.937,6.937,0,0,1-.748,6.932c-5.355,8.142-10.4,16.492-15.752,24.639-1.641,2.5-1.375,4.116.74,6.111,7.2,6.786,14.207,13.762,21.365,20.573a5.965,5.965,0,0,1,2.074,5.564C4507.017,2543.8,4506.358,2553.659,4505.53,2563.867Z" transform="translate(-4469.895 -2341.934)" fill="#2ea836"/>
        <path id="Tracciato_4631" data-name="Tracciato 4631" d="M4784.653,2642.451c0-4.636-.176-9.287.033-13.915.475-10.582,8.273-19.348,18.221-20.727,11.645-1.62,21.76,4.069,25.2,14.526a32.866,32.866,0,0,1,1.424,9.477c.2,8.327.289,16.662.064,24.984a22.343,22.343,0,0,1-18.4,21.563,22.076,22.076,0,0,1-24.768-13.687c-1.463-3.88-1.463-8.362-1.809-12.588-.281-3.188-.049-6.421-.049-9.634Zm32.125,2.525h-.57c0-5.46.289-10.944-.105-16.368-.312-4.4-4.068-7.209-8.652-7.329-4.937-.133-8.885,2.086-9.1,6.079-.523,9.946-.82,19.926-.588,29.885.113,5.162,4.76,8.588,9.787,8.354,5.41-.245,8.395-3.449,8.652-9.235C4816.36,2652.563,4816.577,2648.768,4816.778,2644.977Z" transform="translate(-4692.602 -2529.959)" fill="#2ea836"/>
        <path id="Tracciato_4632" data-name="Tracciato 4632" d="M5073.2,2886.5c-.5,6.144-.322,12.439-1.656,18.4-2.227,10.051-10.187,15.953-20.617,16.557a22.1,22.1,0,0,1-21.68-14.4,34.326,34.326,0,0,1-1.68-10.485c-.242-8.09-.242-16.2-.064-24.276a22.408,22.408,0,0,1,44.8-.812c.242,4.986.072,9.987.072,14.989C5072.648,2886.481,5072.93,2886.49,5073.2,2886.5Zm-32.945-.2c.186,3.827.162,9.191.717,14.49.49,4.769,4.471,7.559,9.674,7.438,4.977-.113,8.072-2.719,8.33-7.809.4-9.127.434-18.277.531-27.42a9.588,9.588,0,0,0-11.291-8.99c-4.672.868-7.059,3.723-7.285,8.66C5040.758,2876.712,5040.541,2880.74,5040.258,2886.3Z" transform="translate(-4864.556 -2701.67)" fill="#2ea836"/>
        <path id="Tracciato_4633" data-name="Tracciato 4633" d="M4829.089,2747.559c8.234-14.956,16.355-29.729,24.494-44.488,16.75-30.371,33.6-60.687,50.168-91.15,2.236-4.1,4.713-5.846,9.416-5.608,7.486.378,7.494.1,3.852,6.662q-36.533,65.725-73.07,131.433C4841.343,2749.12,4834.372,2750.74,4829.089,2747.559Z" transform="translate(-4724.184 -2529.078)" fill="#2ea836"/>
      </g>
    </g>
  </g>
</svg>
