<svg xmlns="http://www.w3.org/2000/svg" xmlns:xlink="http://www.w3.org/1999/xlink" width="300" height="300" viewBox="0 0 300 300">
  <defs>
    <clipPath id="clip-Ordina">
      <rect width="300" height="300"/>
    </clipPath>
  </defs>
  <g id="Ordina" clip-path="url(#clip-Ordina)">
    <g id="Raggruppa_3509" data-name="Raggruppa 3509" transform="translate(2.07)">
      <g id="Raggruppa_2541" data-name="Raggruppa 2541" transform="translate(0 18.409)">
        <path id="Tracciato_44" data-name="Tracciato 44" d="M867.66,1071.76H742.111c-25.5,0-46.245-18.115-46.245-40.383V830.549c0-22.265,20.744-40.38,46.245-40.38h61.114c6.05,0,10.959,4.283,10.959,9.571s-4.909,9.569-10.959,9.569H742.111c-13.42,0-24.327,9.526-24.327,21.24v200.828c0,11.71,10.907,21.244,24.327,21.244H867.66c13.415,0,24.324-9.533,24.324-21.244v-89.92c0-5.281,4.909-9.57,10.958-9.57s10.956,4.289,10.956,9.57v89.92C913.9,1053.646,893.157,1071.76,867.66,1071.76Z" transform="translate(-695.865 -790.169)" fill="#005067"/>
      </g>
      <g id="Raggruppa_2542" data-name="Raggruppa 2542" transform="translate(136.493 0)">
        <path id="Tracciato_45" data-name="Tracciato 45" d="M843.75,946.815H757.823a37.09,37.09,0,0,1-37.047-37.046V823.843a26.3,26.3,0,0,0,1.8-10.929,36.852,36.852,0,0,1,35.247-26.1H843.75a37.081,37.081,0,0,1,37.04,37.034v85.926A37.087,37.087,0,0,1,843.75,946.815ZM742.486,821.725a10.342,10.342,0,0,1,.21,2.119v85.926a15.147,15.147,0,0,0,15.127,15.13H843.75a15.147,15.147,0,0,0,15.12-15.13V823.843a15.141,15.141,0,0,0-15.12-15.117H757.823a15.036,15.036,0,0,0-14.33,10.72A10.829,10.829,0,0,1,742.486,821.725Z" transform="translate(-720.776 -786.809)" fill="#005067"/>
      </g>
      <g id="Raggruppa_2543" data-name="Raggruppa 2543" transform="translate(58.048 230.063)">
        <path id="Tracciato_46" data-name="Tracciato 46" d="M794.127,856.886H717.419a10.958,10.958,0,1,1,0-21.916h76.709a10.958,10.958,0,1,1,0,21.916Z" transform="translate(-706.459 -834.969)" fill="#005067"/>
      </g>
      <g id="Raggruppa_2544" data-name="Raggruppa 2544" transform="translate(173.94 45.188)">
        <path id="Tracciato_47" data-name="Tracciato 47" d="M767.734,858.159a10.931,10.931,0,0,1-7.749-3.211L730.82,825.782a10.957,10.957,0,1,1,15.494-15.5l21.144,21.145,29.382-31.479a10.958,10.958,0,0,1,16.019,14.955l-37.113,39.766a11.017,11.017,0,0,1-7.825,3.485Z" transform="translate(-727.61 -796.471)" fill="#005067"/>
      </g>
    </g>
  </g>
</svg>
