<svg xmlns="http://www.w3.org/2000/svg" xmlns:xlink="http://www.w3.org/1999/xlink" width="300" height="300" viewBox="0 0 300 300">
  <defs>
    <clipPath id="clip-Prenotazioni">
      <rect width="300" height="300"/>
    </clipPath>
  </defs>
  <g id="Prenotazioni" clip-path="url(#clip-Prenotazioni)">
    <g id="Raggruppa_10237" data-name="Raggruppa 10237" transform="translate(-160 -486)">
      <ellipse id="Ellisse_637" data-name="Ellisse 637" cx="103.089" cy="103.089" rx="103.089" ry="103.089" transform="translate(160 543.21)" fill="#00a3e2"/>
      <g id="Raggruppa_4066" data-name="Raggruppa 4066" transform="translate(235.007 523)">
        <ellipse id="Ellisse_635" data-name="Ellisse 635" cx="4.117" cy="4.117" rx="4.117" ry="4.117" transform="translate(149.088 108.365)" fill="#005067" stroke="#005067" stroke-linecap="round" stroke-linejoin="round" stroke-width="3"/>
        <path id="Tracciato_3789" data-name="Tracciato 3789" d="M5715.847,1663.635h-4c-2.715-2.56-2.465-5.305-1.08-8.559,5.459-12.81,12.224-25.362,12.986-39.543.921-17.1.816-34.265,1.07-51.4.07-4.83-2.217-7.439-6.1-7.452-3.821-.014-6.053,2.605-6.12,7.445-.083,6.163.044,12.33-.073,18.492-.057,2.959-1.34,5.775-4.682,4.871-1.67-.452-3.681-3.214-3.83-5.071-.489-5.958-.235-11.982-.171-17.98.048-4.215-1.483-7.221-5.983-7.7-3.846-.406-6.46,2.688-6.555,7.654-.1,5.663-.013,11.328-.042,16.993-.016,3.117-.1,6.421-4.443,6.285-3.929-.121-4.068-3.108-4.046-6.122.047-6.164.165-12.334-.083-18.49-.149-3.787-2.382-6.336-6.342-6.3-3.693.031-5.644,2.5-6.2,6.008a25.749,25.749,0,0,0-.089,3.991q-.014,8-.009,15.995c0,2.874-1,4.987-4.243,4.935s-4.128-2.259-4.109-5.084c.016-1.333,0-2.666,0-4,0-16.994.044-33.989-.022-50.982-.029-5.773-3.17-8.93-7.714-7.854-4.211,1-5.024,4.26-5.015,8.072q.057,28.991.019,57.98c0,4,.4,8.061-.2,11.967-.27,1.737-2.566,3.163-3.941,4.728-1.413-1.541-3.43-2.865-4.071-4.678-.711-1.99-.165-4.429-.165-6.672-2.389,1.6-3.544,3.552-4.955,5.3-7.006,8.646-7.765,17.754-3.262,27.938,4.5,10.154,8.051,20.72,12.256,31.007,1.388,3.392,1.331,6.022-1.763,8.234h-3c-1.156-1.752-2.633-3.374-3.414-5.278-3.319-8.123-6.314-16.375-9.648-24.491-4.494-10.95-9.036-21.838-3.611-33.892-17.766-.936-22.609-7.447-26.316-18.313v-12.995c2.452-1.144,4.907-2.285,7.984-3.72v-4.7q0-48.449,0-96.9c0-15.938,8.692-24.631,24.661-24.632q79.914-.008,159.831,0c15.553,0,24.461,8.884,24.467,24.4q.015,48.7.006,97.4v5.281l1.439-.918c2.156,1.812,5.939,3.4,6.218,5.471,2.62,19.187-8.4,29.379-23.771,29.24-19.478-.176-38.956-.042-58.437-.042h-5.234c-.435,5.375-.7,10.022-1.207,14.642C5730.888,1631.936,5724.012,1648.01,5715.847,1663.635Zm-7.756-111.706c11.659-8.6,25.309-2.785,26.243,14.013h70.385v-10.279c-11.169,0-21.974.025-32.779-.014-3.735-.013-8.807.877-8.733-4.623.073-5.072,4.948-4.3,8.553-4.309,10.947-.021,21.895-.006,33.071-.006.1-1.984.241-3.446.241-4.907q.024-39.231,0-78.464c-.019-11.242-4.542-15.764-15.73-15.769q-79.967-.031-159.927,0c-11.293,0-15.784,4.488-15.791,15.672q-.029,48.73-.006,97.456v5.121h26.513v-21.656c-1.432-.114-2.417-.2-3.4-.271-9.436-.649-15.892-7.29-15.94-16.4-.044-8.956,6.574-16.469,15.788-16.68q24.224-.555,48.474-.017c9.671.2,16.245,7.867,15.972,17.482-.248,8.874-7.126,15.348-16.677,15.618-3.494.1-7,.164-10.49,0-3.595-.173-4.424,1.364-3.909,2.9,6.085,1.762,11.109,3.248,16.153,4.638a3.007,3.007,0,0,0,2.245-.223C5695.152,1546.338,5701.736,1547.343,5708.091,1551.929Zm104.536,23.124h-78.61v15.609h4.094q30.46,0,60.93-.01C5808.555,1590.636,5813.439,1585.081,5812.626,1575.053Zm-172.955.071h-33.677a15.91,15.91,0,0,0,22.819,15.279,2.983,2.983,0,0,0,1.064-.988C5633.05,1584.815,5636.2,1580.2,5639.672,1575.123Zm30.207-39.681c5.634,0,10.436.275,15.19-.082,4.332-.325,7.822-4.13,7.517-7.917-.314-3.972-2.3-7.291-6.539-7.625-5.542-.437-11.141-.108-16.168-.108Zm-29.177-15.579c-3.665-.562-8.042-.862-9.893,3.513a11.557,11.557,0,0,0,.346,8.673c1.636,3.259,5.266,4.1,9.547,2.917Z" transform="translate(-5596.883 -1438.708)" fill="#005067" stroke="#005067" stroke-linecap="round" stroke-linejoin="round" stroke-width="3"/>
        <path id="Tracciato_3790" data-name="Tracciato 3790" d="M5766.711,1506.926c1.162-14.573,1.521-14.9,16.178-14.9,10.059,0,20.113-.017,30.172,0,7.939.017,11.105,2.931,10.9,10.7-.089,3.308.921,4.938,3.932,6.356a15.085,15.085,0,0,1,8.829,11.97,119.885,119.885,0,0,1,.261,18.441c-.13,3.555-3.09,3.757-5.91,3.752q-21.971-.032-43.945-.009c-9.321,0-18.646-.122-27.961.05-4.573.085-6.364-1.93-6.136-6.314a58.922,58.922,0,0,0-.007-7.486C5752.184,1518.608,5756.132,1510.665,5766.711,1506.926Zm61.771,27.692c0-3.818.312-7.3-.073-10.712-.571-5.192-4.106-8.6-9.331-8.651q-23.977-.257-47.959.01c-4.847.053-8.646,3.457-9.023,7.753-.333,3.752-.069,7.557-.069,11.6Zm-28.164-33.862v5.65h14.539v-5.65Zm-9.5.146h-15c.292,2.453-1.922,5.554,2.48,5.784,4.1.214,8.216.045,12.522.045Z" transform="translate(-5636.084 -1452.103)" fill="#005067" stroke="#005067" stroke-linecap="round" stroke-linejoin="round" stroke-width="3"/>
        <path id="Tracciato_3791" data-name="Tracciato 3791" d="M5669.44,1470.628c11.15,0,22.3.021,33.445-.014,3.008-.01,5.975.134,6.114,4.063.155,4.368-3.154,4.445-6.254,4.447q-33.69.029-67.387,0c-3.093,0-6.469-.1-6.393-4.362.079-4.24,3.427-4.152,6.532-4.145Q5652.474,1470.656,5669.44,1470.628Z" transform="translate(-5604.943 -1446.724)" fill="#005067" stroke="#005067" stroke-linecap="round" stroke-linejoin="round" stroke-width="3"/>
        <path id="Tracciato_3792" data-name="Tracciato 3792" d="M5648.571,1511.864c-4.812,0-9.665.365-14.409-.182-1.88-.215-4.618-2.173-5.043-3.832-.851-3.29,1.909-4.621,4.881-4.642,9.954-.073,19.913-.23,29.848.176,1.743.071,4.529,2.5,4.833,4.189.578,3.223-2.1,4.356-5.183,4.31C5658.518,1511.81,5653.547,1511.864,5648.571,1511.864Z" transform="translate(-5604.941 -1454.89)" fill="#005067" stroke="#005067" stroke-linecap="round" stroke-linejoin="round" stroke-width="3"/>
        <ellipse id="Ellisse_636" data-name="Ellisse 636" cx="4.117" cy="4.117" rx="4.117" ry="4.117" transform="translate(71.309 48.449)" fill="#005067" stroke="#005067" stroke-linecap="round" stroke-linejoin="round" stroke-width="3"/>
      </g>
    </g>
  </g>
</svg>
