<svg xmlns="http://www.w3.org/2000/svg" xmlns:xlink="http://www.w3.org/1999/xlink" width="300" height="300" viewBox="0 0 300 300">
  <defs>
    <clipPath id="clip-Prezzi">
      <rect width="300" height="300"/>
    </clipPath>
  </defs>
  <g id="Prezzi" clip-path="url(#clip-Prezzi)">
    <g id="Raggruppa_10164" data-name="Raggruppa 10164" transform="translate(-896.198 -1465.406)">
      <g id="Raggruppa_10163" data-name="Raggruppa 10163" transform="translate(896.198 1480.266)">
        <g id="Raggruppa_10159" data-name="Raggruppa 10159" transform="translate(0)">
          <g id="Raggruppa_10152" data-name="Raggruppa 10152" transform="translate(0 89.896)">
            <path id="Tracciato_4619" data-name="Tracciato 4619" d="M927.379,1819.49a21.773,21.773,0,0,1-20.692-15.175l-9.469-29.856a21.759,21.759,0,0,1,14.146-27.288l64.737-20.532a4.565,4.565,0,1,1,2.761,8.7l-64.738,20.531a12.618,12.618,0,0,0-8.2,15.824l9.469,29.857a12.605,12.605,0,0,0,15.825,8.2l65.749-20.853a4.565,4.565,0,0,1,2.76,8.7l-65.749,20.852A21.783,21.783,0,0,1,927.379,1819.49Z" transform="translate(-896.198 -1726.424)" fill="#005067" stroke="#005067" stroke-width="3"/>
          </g>
          <g id="Raggruppa_10153" data-name="Raggruppa 10153" transform="translate(76.718 53.07)">
            <path id="Tracciato_4620" data-name="Tracciato 4620" d="M1165.769,1744.319a4.567,4.567,0,0,1-1.291-.187l-30.326-8.93a17.128,17.128,0,0,1-11.5-11.265l-15.578-49.116a17.147,17.147,0,0,1,3.931-17.014L1140.356,1627a4.565,4.565,0,1,1,6.61,6.3l-29.353,30.806a8.019,8.019,0,0,0-1.838,7.955l15.578,49.116a8.009,8.009,0,0,0,5.378,5.268l30.325,8.93a4.566,4.566,0,0,1-1.288,8.945Z" transform="translate(-1106.27 -1625.584)" fill="#005067" stroke="#005067" stroke-width="3"/>
          </g>
          <g id="Raggruppa_10154" data-name="Raggruppa 10154" transform="translate(123.02 14.25)">
            <path id="Tracciato_4621" data-name="Tracciato 4621" d="M1306.552,1694.6a4.585,4.585,0,0,1-1.29-.186l-37.2-10.956a4.565,4.565,0,1,1,2.579-8.758l29.352,8.644-41.13-150.488-17.935,18.823a4.565,4.565,0,1,1-6.609-6.3l23.511-24.676a4.565,4.565,0,0,1,7.709,1.945l45.419,166.181a4.566,4.566,0,0,1-4.4,5.769Z" transform="translate(-1233.057 -1519.286)" fill="#005067" stroke="#005067" stroke-width="3"/>
          </g>
          <g id="Raggruppa_10155" data-name="Raggruppa 10155" transform="translate(48.626 159.445)">
            <path id="Tracciato_4622" data-name="Tracciato 4622" d="M1043.247,1966.609a4.568,4.568,0,0,1-4.292-3.009l-8.929-24.613c-.009-.028-.019-.054-.028-.08a11.91,11.91,0,0,1,7.669-15.21l19.759-6.267a11.913,11.913,0,0,1,15,7.885l7.907,24.807a4.565,4.565,0,1,1-8.7,2.772l-7.917-24.838-.022-.072a2.782,2.782,0,0,0-3.505-1.851l-19.76,6.267a2.783,2.783,0,0,0-1.8,3.521l8.913,24.567a4.566,4.566,0,0,1-4.291,6.122Z" transform="translate(-1029.349 -1916.865)" fill="#005067" stroke="#005067" stroke-width="3"/>
          </g>
          <g id="Raggruppa_10156" data-name="Raggruppa 10156" transform="translate(54.852 189.391)">
            <path id="Tracciato_4623" data-name="Tracciato 4623" d="M1082.133,2082.57a23.859,23.859,0,0,1-22.711-16.7l-12.387-39.471a14.186,14.186,0,0,1,8.92-17.575l27.1-9.2a14.1,14.1,0,0,1,18.018,9.23l12.381,40.5a23.829,23.829,0,0,1-16.279,29.891l-8.5,2.415A23.9,23.9,0,0,1,1082.133,2082.57Zm5.46-74.572a4.987,4.987,0,0,0-1.6.268l-27.1,9.2a5,5,0,0,0-3.145,6.2l12.386,39.471a14.625,14.625,0,0,0,18.043,9.74l8.5-2.415h0a14.7,14.7,0,0,0,10.042-18.44l-12.381-40.5a4.981,4.981,0,0,0-4.748-3.521Z" transform="translate(-1046.397 -1998.863)" fill="#005067" stroke="#005067" stroke-width="3"/>
          </g>
          <g id="Raggruppa_10157" data-name="Raggruppa 10157" transform="translate(30.103 104.681)">
            <path id="Tracciato_4624" data-name="Tracciato 4624" d="M1003.129,1837.219a4.565,4.565,0,0,1-4.339-3.151l-19.938-61.181a4.565,4.565,0,0,1,8.681-2.828l19.937,61.18a4.566,4.566,0,0,1-4.341,5.98Z" transform="translate(-978.626 -1766.908)" fill="#005067" stroke="#005067" stroke-width="3"/>
          </g>
          <g id="Raggruppa_10158" data-name="Raggruppa 10158" transform="translate(145.916)">
            <path id="Tracciato_4625" data-name="Tracciato 4625" d="M1359.833,1684.184a15.948,15.948,0,0,1-15.337-11.631l-48.15-172.071a15.92,15.92,0,1,1,30.662-8.58l19.327,69.069a4.565,4.565,0,0,1-8.793,2.459l-19.326-69.068a6.79,6.79,0,0,0-13.078,3.66l48.15,172.071a6.79,6.79,0,0,0,13.078-3.66l-22.555-80.6a4.565,4.565,0,1,1,8.792-2.46l22.555,80.6a15.924,15.924,0,0,1-15.325,20.212Z" transform="translate(-1295.751 -1480.265)" fill="#005067" stroke="#005067" stroke-width="3"/>
          </g>
        </g>
        <g id="Raggruppa_10160" data-name="Raggruppa 10160" transform="translate(203.035 14.25)">
          <path id="Tracciato_4626" data-name="Tracciato 4626" d="M1456.728,1562.543a4.565,4.565,0,0,1-2.508-8.382l52.03-34.127a4.565,4.565,0,0,1,5.007,7.635l-52.029,34.128A4.554,4.554,0,0,1,1456.728,1562.543Z" transform="translate(-1452.157 -1519.286)" fill="#005067" stroke="#005067" stroke-width="3"/>
        </g>
        <g id="Raggruppa_10161" data-name="Raggruppa 10161" transform="translate(214.783 72.992)">
          <path id="Tracciato_4627" data-name="Tracciato 4627" d="M1488.89,1705.491a4.565,4.565,0,0,1-1.213-8.966l58.742-16.224a4.565,4.565,0,0,1,2.43,8.8l-58.742,16.224A4.6,4.6,0,0,1,1488.89,1705.491Z" transform="translate(-1484.327 -1680.135)" fill="#005067" stroke="#005067" stroke-width="3"/>
        </g>
        <g id="Raggruppa_10162" data-name="Raggruppa 10162" transform="translate(225.414 129.497)">
          <path id="Tracciato_4628" data-name="Tracciato 4628" d="M1583.462,1848.385c-.1,0-.206,0-.311-.01l-65.456-4.4a4.564,4.564,0,1,1,.612-9.108l65.455,4.395a4.565,4.565,0,0,1-.3,9.119Z" transform="translate(-1513.436 -1834.861)" fill="#005067" stroke="#005067" stroke-width="3"/>
        </g>
      </g>
      <circle id="Ellisse_727" data-name="Ellisse 727" cx="4.419" cy="4.419" r="4.419" transform="translate(1086.873 1568.781)" fill="#005067" stroke="#005067" stroke-width="3"/>
      <circle id="Ellisse_728" data-name="Ellisse 728" cx="4.419" cy="4.419" r="4.419" transform="translate(1040.224 1646.274)" fill="#005067" stroke="#005067" stroke-width="3"/>
      <circle id="Ellisse_729" data-name="Ellisse 729" cx="4.419" cy="4.419" r="4.419" transform="translate(1012.681 1526.552)" fill="#005067" stroke="#005067" stroke-width="3"/>
    </g>
  </g>
</svg>
