<svg xmlns="http://www.w3.org/2000/svg" xmlns:xlink="http://www.w3.org/1999/xlink" width="300" height="300" viewBox="0 0 300 300">
  <defs>
    <clipPath id="clip-Ristoratore_1">
      <rect width="300" height="300"/>
    </clipPath>
  </defs>
  <g id="Ristoratore_1" data-name="Ristoratore – 1" clip-path="url(#clip-Ristoratore_1)">
    <g id="Raggruppa_10269" data-name="Raggruppa 10269" transform="translate(-3529.302 -1108.486)">
      <g id="Raggruppa_10277" data-name="Raggruppa 10277" transform="translate(3529.302 1151.487)">
        <path id="Tracciato_4655" data-name="Tracciato 4655" d="M3781.615,1365.728H3579.347a10.025,10.025,0,0,1-9.728-12.449l8.048-32.269a97.3,97.3,0,0,1-38.277-37.214c-11.32-20.041-13.182-41.474-5.24-60.352a77.47,77.47,0,0,1,95.02-43.639,64.841,64.841,0,0,1,105.946-1.72,76.3,76.3,0,0,1,16.786-1.866h.1a77.31,77.31,0,0,1,77.3,77.282h0c.013,27.228-22.164,51.643-46.159,65.619l8.219,34.246a10.024,10.024,0,0,1-9.747,12.362Zm-189.442-20.044H3768.9l-7.052-29.4a10.015,10.015,0,0,1,5.331-11.338c20.271-9.94,42.086-30.278,42.077-51.442a57.275,57.275,0,0,0-57.268-57.245h-.072a56.25,56.25,0,0,0-18.035,2.961,10.023,10.023,0,0,1-11.97-4.635,44.786,44.786,0,0,0-79.395,2.046,10.026,10.026,0,0,1-13.182,4.708q-.821-.378-1.661-.731a57.378,57.378,0,0,0-75.051,30.607c-5.479,13.03-3.982,28.2,4.218,42.719a76.725,76.725,0,0,0,36.409,32.33,10.021,10.021,0,0,1,5.837,11.663Z" transform="translate(-3529.302 -1151.486)" fill="#005067"/>
      </g>
      <g id="Raggruppa_10278" data-name="Raggruppa 10278" transform="translate(3576.648 1287.112)">
        <path id="Tracciato_4656" data-name="Tracciato 4656" d="M3773.378,1319.463a7.517,7.517,0,0,1-2.022-.272c-.488-.138-49.254-13.422-90.462-13.422-41.293,0-93.435,13.317-93.957,13.448-4.566,1.2-9.118-2-10.171-7.105s1.793-10.187,6.36-11.362c2.2-.574,54.5-13.939,97.769-13.939,43.306,0,92.453,13.4,94.513,13.963,4.548,1.263,7.332,6.4,6.2,11.482C3780.662,1316.574,3777.2,1319.463,3773.378,1319.463Z" transform="translate(-3576.546 -1286.809)" fill="#005067"/>
      </g>
    </g>
  </g>
</svg>
