<svg xmlns="http://www.w3.org/2000/svg" xmlns:xlink="http://www.w3.org/1999/xlink" width="300" height="300" viewBox="0 0 300 300">
  <defs>
    <filter id="Rettangolo_2" x="-9" y="-6" width="318.427" height="318.47" filterUnits="userSpaceOnUse">
      <feOffset dy="3" input="SourceAlpha"/>
      <feGaussianBlur stdDeviation="3" result="blur"/>
      <feFlood flood-opacity="0.161"/>
      <feComposite operator="in" in2="blur"/>
      <feComposite in="SourceGraphic"/>
    </filter>
    <clipPath id="clip-Search">
      <rect width="300" height="300"/>
    </clipPath>
  </defs>
  <g id="Search" clip-path="url(#clip-Search)">
    <g id="Raggruppa_9910" data-name="Raggruppa 9910" transform="translate(-0.427 -0.037)">
      <g transform="matrix(1, 0, 0, 1, 0.43, 0.04)" filter="url(#Rettangolo_2)">
        <rect id="Rettangolo_2-2" data-name="Rettangolo 2" width="300.427" height="300.47" rx="150" fill="#2ea836"/>
      </g>
      <g id="Raggruppa_9909" data-name="Raggruppa 9909" transform="translate(64.427 64.037)">
        <path id="Tracciato_4569" data-name="Tracciato 4569" d="M500.455,52.116l17.7,17.7a9.351,9.351,0,0,0,13.223-13.225l-17.7-17.7a9.352,9.352,0,0,0-13.227,13.225ZM383.67-77.9a72.89,72.89,0,0,0,0,103.039,72.9,72.9,0,0,0,103.041,0,72.9,72.9,0,0,0,0-103.039A72.9,72.9,0,0,0,383.67-77.9ZM396.894-64.67a54.184,54.184,0,0,1,76.59,0,54.182,54.182,0,0,1,0,76.588,54.184,54.184,0,0,1-76.59,0A54.181,54.181,0,0,1,396.894-64.67Z" transform="translate(-362.343 99.221)" fill="#fff" fill-rule="evenodd"/>
      </g>
    </g>
  </g>
</svg>
