<svg xmlns="http://www.w3.org/2000/svg" xmlns:xlink="http://www.w3.org/1999/xlink" width="300" height="300" viewBox="0 0 300 300">
  <defs>
    <clipPath id="clip-Servito_Subito">
      <rect width="300" height="300"/>
    </clipPath>
  </defs>
  <g id="Servito_Subito" data-name="Servito Subito" clip-path="url(#clip-Servito_Subito)">
    <g id="Raggruppa_4104" data-name="Raggruppa 4104" transform="translate(-0.295 27)">
      <ellipse id="Ellisse_593" data-name="Ellisse 593" cx="100.02" cy="100.02" rx="100.02" ry="100.02" transform="translate(0 13.567)" fill="#2ea836"/>
      <path id="Tracciato_49" data-name="Tracciato 49" d="M871.515,922.795H849.965a15.088,15.088,0,0,1-15.071-15.068V838.1a15.089,15.089,0,0,1,15.071-15.071h21.549A15.091,15.091,0,0,1,886.586,838.1v69.626A15.091,15.091,0,0,1,871.515,922.795Zm-21.549-85.159a.492.492,0,0,0-.464.465v69.626a.49.49,0,0,0,.464.461h21.549a.49.49,0,0,0,.464-.461V838.1a.491.491,0,0,0-.464-.465Z" transform="translate(-753.013 -676.153)" fill="#005067"/>
      <path id="Tracciato_50" data-name="Tracciato 50" d="M926.354,905.04c-17.121.005-32.272-4.211-40.372-8.336-15.622-7.961-31.925-4.243-32.089-4.208a7.3,7.3,0,0,1-3.359-14.217c.873-.2,21.721-4.958,42.084,5.409,16.754,8.542,69.928,17.629,93.717-28.148,1.358-4.521,1.5-10.141.23-11.157-.044-.042-5.313-3.385-27.736,9.894a6.716,6.716,0,0,1-.783.4c-2.763,1.218-27.447,11.778-43.674,8.7a7.3,7.3,0,1,1,2.739-14.349c9.764,1.885,27.956-4.662,34.677-7.551,21.477-12.646,35.448-15.318,43.95-8.458,10.346,8.348,4.953,25.672,4.307,27.62a7.427,7.427,0,0,1-.428,1.01C982.366,895.476,952.13,905.04,926.354,905.04Z" transform="translate(-726.455 -659.438)" fill="#005067"/>
      <path id="Tracciato_51" data-name="Tracciato 51" d="M941.848,867.5a7.305,7.305,0,0,1-6.532-4.025c-7.03-13.981-16.193-22.128-27.228-24.223-23.619-4.483-49.7,18.588-49.965,18.826a7.3,7.3,0,0,1-9.763-10.865c1.281-1.149,31.659-28.124,62.386-22.322,15.769,2.964,28.425,13.742,37.622,32.021a7.3,7.3,0,0,1-6.52,10.588Z" transform="translate(-723.712 -673.39)" fill="#005067"/>
      <path id="Tracciato_52" data-name="Tracciato 52" d="M1027.236,830.114H849.275a7.3,7.3,0,0,1,0-14.607h177.961a7.3,7.3,0,0,1,0,14.607Z" transform="translate(-734.244 -696.102)" fill="#005067"/>
      <path id="Tracciato_53" data-name="Tracciato 53" d="M997.677,880.517a7.307,7.307,0,0,1-7.3-7.306,64.911,64.911,0,1,0-129.822,0,7.3,7.3,0,1,1-14.607,0,79.517,79.517,0,1,1,159.034,0A7.3,7.3,0,0,1,997.677,880.517Z" transform="translate(-723.71 -753.953)" fill="#005067"/>
      <path id="Tracciato_54" data-name="Tracciato 54" d="M888.074,837.156a27.173,27.173,0,1,1,27.173-27.172A27.2,27.2,0,0,1,888.074,837.156Zm0-39.739a12.566,12.566,0,1,0,12.564,12.567A12.584,12.584,0,0,0,888.074,797.417Z" transform="translate(-684.063 -782.809)" fill="#005067"/>
    </g>
  </g>
</svg>
