<svg xmlns="http://www.w3.org/2000/svg" xmlns:xlink="http://www.w3.org/1999/xlink" width="300" height="300" viewBox="0 0 300 300">
  <defs>
    <filter id="Rettangolo_2139" x="62.92" y="26.14" width="255.08" height="255.074" filterUnits="userSpaceOnUse">
      <feOffset dy="6" input="SourceAlpha"/>
      <feGaussianBlur stdDeviation="6" result="blur"/>
      <feFlood flood-opacity="0.051"/>
      <feComposite operator="in" in2="blur"/>
      <feComposite in="SourceGraphic"/>
    </filter>
    <clipPath id="clip-User_1">
      <rect width="300" height="300"/>
    </clipPath>
  </defs>
  <g id="User_1" data-name="User – 1" clip-path="url(#clip-User_1)">
    <g id="Raggruppa_3698" data-name="Raggruppa 3698" transform="translate(0.36 18)">
      <g transform="matrix(1, 0, 0, 1, -0.36, -18)" filter="url(#Rettangolo_2139)">
        <rect id="Rettangolo_2139-2" data-name="Rettangolo 2139" width="219.08" height="219.074" rx="109.537" transform="translate(80.92 38.14)" fill="#ff800f"/>
      </g>
      <g id="noun_miss_518255" transform="translate(0 0)">
        <path id="Tracciato_107" data-name="Tracciato 107" d="M236.385,167.4a217.74,217.74,0,0,0-43.489-11.21l-3.633-16.97a83.34,83.34,0,0,1,16.5,7.94h0a7.67,7.67,0,0,0,10.379-1.816c11.677-15.725,18.06-35.861,18.06-56.671C234.257,40.871,200.888,2,159.89,2S85.522,40.871,85.522,88.616c0,20.966,6.487,41.154,18.268,56.931a7.409,7.409,0,0,0,9.964,1.765s8.719-5.709,16.762-8.252l-3.685,17.126A221.305,221.305,0,0,0,83.342,167.4,41.8,41.8,0,0,0,56.2,206.37v51.9a7.309,7.309,0,0,0,7.317,7.317H256.21a7.309,7.309,0,0,0,7.317-7.317v-51.9A41.776,41.776,0,0,0,236.385,167.4Zm-76.5-31.865c-15.309,0-28.18-16.348-29.944-37.21a105.847,105.847,0,0,0,35.134-34.252,108.734,108.734,0,0,0,23.25,15.206,55.911,55.911,0,0,1,1.816,14.064C190.093,116.588,176.548,135.531,159.89,135.531Zm0,14.635a36.706,36.706,0,0,0,15.932-3.788l4.1,18.994c-.623,8.459-12.767,17.437-20.032,21.8-7.888-4.723-19.409-13.7-19.98-21.8l4.048-18.89A36.269,36.269,0,0,0,159.89,150.166Zm-3.321,51.949a7.365,7.365,0,0,0,6.591,0c2.854-1.453,25.637-13.441,30.463-30.931,6.02.986,11.988,2.232,17.853,3.788a51.66,51.66,0,0,1-103.171,0c5.916-1.557,11.884-2.751,17.852-3.788C130.931,188.621,153.714,200.661,156.568,202.115Zm-44.735-70.736a81.889,81.889,0,0,1-11.677-42.711c0-39.7,26.779-71.981,59.733-71.981,32.9,0,59.733,32.28,59.733,71.981a81.752,81.752,0,0,1-11.677,42.711,103.75,103.75,0,0,0-11.417-5.345,68.647,68.647,0,0,0,8.044-38.352,70.56,70.56,0,0,0-3.529-16.97,7.851,7.851,0,0,0-3.633-3.373A97.183,97.183,0,0,1,168.5,47.358h0a7.355,7.355,0,0,0-11.677,1.764C147.9,66.041,134.46,79.69,119.047,87.63h0a7.35,7.35,0,0,0-4,6.591h0a68.156,68.156,0,0,0,8.044,31.865A92.607,92.607,0,0,0,111.833,131.379ZM248.892,251H70.887V206.422a27.073,27.073,0,0,1,17.645-25.274c1.764-.675,3.633-1.246,5.4-1.868a66.38,66.38,0,0,0,131.973,0c1.816.623,3.633,1.194,5.4,1.868a27.147,27.147,0,0,1,17.645,25.274V251Z" transform="translate(-56.2 -2)" fill="#005067"/>
      </g>
    </g>
  </g>
</svg>
