<svg xmlns="http://www.w3.org/2000/svg" xmlns:xlink="http://www.w3.org/1999/xlink" width="300" height="300" viewBox="0 0 300 300">
  <defs>
    <clipPath id="clip-Visibilità">
      <rect width="300" height="300"/>
    </clipPath>
  </defs>
  <g id="Visibilità" clip-path="url(#clip-Visibilità)">
    <g id="Raggruppa_10234" data-name="Raggruppa 10234" transform="translate(-160 -90.278)">
      <circle id="Ellisse_593" data-name="Ellisse 593" cx="95.5" cy="95.5" r="95.5" transform="translate(160 145.278)" fill="#00a3e2"/>
      <path id="Tracciato_3766" data-name="Tracciato 3766" d="M3435.6,575.2q-54.808,0-109.614,0c-3.587,0-6.516-1.325-8.142-4.6a10.626,10.626,0,0,1-.971-4.563c-.064-20.33-.044-40.661-.045-60.991q0-45.235-.016-90.469a8.8,8.8,0,0,1,3.548-7.654,8.916,8.916,0,0,1,5.086-1.622c1.176-.046,2.354-.009,3.529-.009q107.986,0,215.97-.008c3.887,0,7.071,1.253,8.727,4.966a10.953,10.953,0,0,1,.858,4.334q.061,74.3.02,148.607a25.452,25.452,0,0,1-.353,5.527,8.252,8.252,0,0,1-8.169,6.469c-1.673.039-3.351.01-5.025.01Zm.1-161.406H3327.163c-1.979,0-1.98,0-1.98,1.917q0,9.374,0,18.748c0,1.933,0,1.936,1.971,1.936h50.8c16.3,0,32.6.027,48.9-.032a4.33,4.33,0,0,1,4.15,3.049,4.064,4.064,0,0,1-2.119,4.817,7.98,7.98,0,0,1-3.163.5q-49.307.039-98.62.026c-1.9,0-1.927.037-1.927,1.879V564.693c0,2,.005,2,2.029,2l216.8,0c2.069,0,2.072,0,2.072-2.072V446.842c0-.362.115-.791-.039-1.071a2.021,2.021,0,0,0-.973-.968,6.108,6.108,0,0,0-1.753-.052q-27.78,0-55.56-.016a7.584,7.584,0,0,1-3.151-.538,4.062,4.062,0,0,1-2.032-4.968,3.993,3.993,0,0,1,4.139-2.829q28.6-.006,57.189,0c2.176,0,2.182,0,2.182-2.243q0-9.238,0-18.476c0-1.885,0-1.884-1.85-1.884Z" transform="translate(-3094.564 -242.414)" fill="#005067" stroke="#005067" stroke-width="4"/>
      <path id="Tracciato_3767" data-name="Tracciato 3767" d="M3469.558,660.7c3.778-3.875,7.458-7.8,11.3-11.545,2.424-2.362,5.078-4.491,7.668-6.681a4.384,4.384,0,0,1,6.3.368c1.532,1.845,1.128,4.382-.818,6.133-4.069,3.657-8.069,7.391-12.117,11.07-.733.665-.754,1.169-.041,1.886,10.076,10.14,21.237,18.809,34.085,25.194a3.5,3.5,0,0,0,.765.173c-12.933-17.632-12.919-35.112.2-52.846-.925.406-1.7.666-2.393,1.063-3.408,1.95-6.83,3.882-10.184,5.927-2.449,1.494-4.881,1.214-6.322-.921-1.358-2.013-.661-4.663,1.644-6.183a99.3,99.3,0,0,1,27.2-12.882,69.855,69.855,0,0,1,34.2-1.425,96.143,96.143,0,0,1,32.008,13.548,137.62,137.62,0,0,1,23.366,18.906c2.426,2.428,4.612,5.094,6.941,7.619.591.639.54,1.089.005,1.737a115.223,115.223,0,0,1-15.25,15.217,4.194,4.194,0,0,1-6.154-.4c-1.535-1.884-1.2-4.327.764-6.15,3.053-2.827,6.063-5.7,9.111-8.531.695-.645.815-1.109.061-1.878a131.977,131.977,0,0,0-26.454-21.069c-2.479-1.484-5.062-2.787-7.6-4.163a6.2,6.2,0,0,0-.894-.3c13.059,17.669,13.055,35.184-.08,52.92a8.835,8.835,0,0,0,1.2-.462c4.519-2.64,9.063-5.243,13.53-7.971,1.543-.942,3.06-1.422,4.725-.677a4.162,4.162,0,0,1,.711,7.228,127.83,127.83,0,0,1-12.352,7.563,121.728,121.728,0,0,1-14.638,6.316,68.807,68.807,0,0,1-27.609,3.737c-12.042-.749-23.138-4.541-33.7-10.139a119,119,0,0,1-26.068-18.645c-4.2-3.965-8.095-8.259-12.116-12.415A14.819,14.819,0,0,1,3469.558,660.7Zm77.32,31.618a31.321,31.321,0,1,0-31.323-31.9A31.414,31.414,0,0,0,3546.878,692.315Z" transform="translate(-3205.767 -397.679)" fill="#005067" stroke="#005067" stroke-width="3"/>
      <path id="Tracciato_3768" data-name="Tracciato 3768" d="M3778.486,519.682c4.434,0,8.866-.008,13.3.006a4.156,4.156,0,0,1,.422,8.294,10.9,10.9,0,0,1-1.219.057c-8.368,0-16.737.019-25.1-.018a7.136,7.136,0,0,1-2.888-.513,4.079,4.079,0,0,1-2.059-4.954,4.022,4.022,0,0,1,3.979-2.869C3769.438,519.671,3773.962,519.679,3778.486,519.682Z" transform="translate(-3417.78 -325.698)" fill="#005067"/>
      <path id="Tracciato_3769" data-name="Tracciato 3769" d="M3361.113,853.626c0-5.385.008-10.771-.005-16.156,0-1.148.285-2.079,1.536-2.372a2.041,2.041,0,0,1,2.632,2.226c.022,3.53.009,7.06.009,10.589q0,10.182,0,20.364c0,2.675.632,3.3,3.27,3.3q10.927,0,21.856,0a10.871,10.871,0,0,1,1.89.122,1.841,1.841,0,0,1,1.591,2.273,1.705,1.705,0,0,1-1.882,1.71c-2.4.016-4.8.01-7.195.01q-8.688,0-17.376,0a6.027,6.027,0,0,1-6.305-6.182c-.058-5.294-.015-10.589-.015-15.884Z" transform="translate(-3126.81 -555.281)" fill="#005067"/>
      <path id="Tracciato_3770" data-name="Tracciato 3770" d="M3377.746,461.161a6.124,6.124,0,0,1-6.314,6.322,6.2,6.2,0,0,1-6.257-6.414,6.133,6.133,0,0,1,6.28-6.23A6.063,6.063,0,0,1,3377.746,461.161Z" transform="translate(-3129.774 -278.495)" fill="#005067"/>
      <path id="Tracciato_3771" data-name="Tracciato 3771" d="M3432.482,467.488a6.265,6.265,0,0,1-6.254-6.45,6.149,6.149,0,0,1,6.323-6.2,6.279,6.279,0,0,1,6.4,6.34A6.424,6.424,0,0,1,3432.482,467.488Z" transform="translate(-3174.221 -278.494)" fill="#005067"/>
      <path id="Tracciato_3772" data-name="Tracciato 3772" d="M3499.951,461.14a6.346,6.346,0,1,1-12.691-.038,6.346,6.346,0,0,1,12.691.038Z" transform="translate(-3218.655 -278.502)" fill="#005067"/>
      <path id="Tracciato_3773" data-name="Tracciato 3773" d="M3523.307,973.546c-2.943,0-5.885.012-8.826,0-1.556-.009-2.259-.6-2.31-1.876a1.954,1.954,0,0,1,2.185-2.2q9.1-.066,18.2.007a1.885,1.885,0,0,1,2.086,2.137c-.056,1.339-.709,1.927-2.235,1.934C3529.373,973.556,3526.34,973.545,3523.307,973.546Z" transform="translate(-3236.79 -653.135)" fill="#005067"/>
      <path id="Tracciato_3774" data-name="Tracciato 3774" d="M3361.124,745.963c0-2.713-.013-5.426.008-8.138.011-1.588.773-2.476,2.056-2.483s2.091.894,2.1,2.456q.021,8.206,0,16.412c0,1.615-.746,2.453-2.076,2.443-1.362-.01-2.07-.793-2.083-2.417C3361.106,751.479,3361.122,748.721,3361.124,745.963Z" transform="translate(-3126.82 -482.711)" fill="#005067"/>
      <path id="Tracciato_3775" data-name="Tracciato 3775" d="M3715.54,715.194c-.307,9.394-7.413,18.069-16.988,20.534a22.761,22.761,0,0,1-12.432-43.783,30.033,30.033,0,0,1,6.523-1,3.944,3.944,0,0,1,4.3,4.021,4.076,4.076,0,0,1-4.266,4.391,14.1,14.1,0,0,0-11.154,5.513c-6.457,8.11-2.2,20.18,7.844,22.756,8.274,2.122,16.806-4.148,17.594-12.121.073-.718.168-1.434.222-2.154a4.183,4.183,0,0,1,8.35.119C3715.557,713.919,3715.54,714.373,3715.54,715.194Z" transform="translate(-3351.675 -450.379)" fill="#005067" stroke="#005067" stroke-width="1"/>
    </g>
  </g>
</svg>
