<svg xmlns="http://www.w3.org/2000/svg" xmlns:xlink="http://www.w3.org/1999/xlink" width="300" height="300" viewBox="0 0 300 300">
  <defs>
    <clipPath id="clip-Download">
      <rect width="300" height="300"/>
    </clipPath>
  </defs>
  <g id="Download" clip-path="url(#clip-Download)">
    <g id="Raggruppa_10202" data-name="Raggruppa 10202" transform="translate(-123.74 -309.022)">
      <circle id="Ellisse_730" data-name="Ellisse 730" cx="86.5" cy="86.5" r="86.5" transform="translate(250.74 373.022)" fill="#00a3e2"/>
      <path id="Tracciato_4629" data-name="Tracciato 4629" d="M715.944-45.057c7.486-30.417,33.886-52.771,65.036-52.771,27.151,0,50.675,16.953,61.233,41.466a46.815,46.815,0,0,1,16.161-2.863c26.83,0,48.891,22.745,48.891,51.092S885.2,42.959,858.373,42.959H788.886a10.017,10.017,0,0,1,0-20.034h69.488c16.083,0,28.857-14.064,28.857-31.058s-12.774-31.058-28.857-31.058a27.284,27.284,0,0,0-16.064,5.267,10.013,10.013,0,0,1-9.368,1.274,10.018,10.018,0,0,1-6.258-7.092c-5.118-21.733-23.561-38.052-45.7-38.052-26.077,0-46.984,22.562-47.126,50.083a10.011,10.011,0,0,1-6.325,9.262,10.019,10.019,0,0,1-10.955-2.417,22.694,22.694,0,0,0-16.479-7.258c-13.2,0-23.621,11.584-23.621,25.524,0,13.887,10.346,25.436,23.436,25.524h28.677a10.017,10.017,0,1,1,0,20.034H699.809C676,42.8,656.438,22.593,656.438-2.6c0-25.293,19.719-45.559,43.656-45.559A41.866,41.866,0,0,1,715.944-45.057Z" transform="translate(-532.698 485.564)" fill="#005067" fill-rule="evenodd"/>
    </g>
  </g>
</svg>
