<svg xmlns="http://www.w3.org/2000/svg" xmlns:xlink="http://www.w3.org/1999/xlink" width="300" height="300" viewBox="0 0 300 300">
  <defs>
    <clipPath id="clip-Home">
      <rect width="300" height="300"/>
    </clipPath>
  </defs>
  <g id="Home" clip-path="url(#clip-Home)">
    <path id="Tracciato_7" data-name="Tracciato 7" d="M145.263,20.668a17.439,17.439,0,0,1,13.2,5.927l105.947,119.19a17.642,17.642,0,0,1,4.46,11.732v92.52a35.356,35.356,0,0,1-35.316,35.316H180.578V232.379a35.316,35.316,0,1,0-70.631,0v52.973H56.973a35.356,35.356,0,0,1-35.316-35.316v-92.52a17.641,17.641,0,0,1,4.46-11.731L132.065,26.6a17.439,17.439,0,0,1,13.2-5.927m0-17.658a35.169,35.169,0,0,0-26.4,11.853L12.921,134.054A35.316,35.316,0,0,0,4,157.517v92.52A52.973,52.973,0,0,0,56.973,303.01h52.973A17.658,17.658,0,0,0,127.6,285.352V232.379a17.658,17.658,0,0,1,35.316,0v52.973a17.658,17.658,0,0,0,17.658,17.658h52.973a52.973,52.973,0,0,0,52.973-52.973v-92.52a35.316,35.316,0,0,0-8.921-23.463L171.658,14.864A35.17,35.17,0,0,0,145.263,3.01Z" transform="translate(4.5 -3.01)" fill="#bbb" stroke="#bbb" stroke-linecap="round" stroke-linejoin="round" stroke-width="4"/>
  </g>
</svg>
