<svg xmlns="http://www.w3.org/2000/svg" xmlns:xlink="http://www.w3.org/1999/xlink" width="300" height="300" viewBox="0 0 300 300">
  <defs>
    <clipPath id="clip-Occupazione">
      <rect width="300" height="300"/>
    </clipPath>
  </defs>
  <g id="Occupazione" clip-path="url(#clip-Occupazione)">
    <g id="Raggruppa_10235" data-name="Raggruppa 10235" transform="translate(-160 -261)">
      <ellipse id="Ellisse_633" data-name="Ellisse 633" cx="123.898" cy="123.898" rx="123.898" ry="123.898" transform="translate(212.204 261)" fill="#00a3e2"/>
      <g id="Raggruppa_4065" data-name="Raggruppa 4065" transform="translate(160 343.598)">
        <path id="Tracciato_3780" data-name="Tracciato 3780" d="M4128.27,1511.207h-9.361c-3.2-24.832,1.066-48.651,6.516-73.264-7.648,0-14.885.081-22.117-.023-7.135-.1-8.875-2.43-6.6-8.994,11.439-32.947,23.018-65.847,34.348-98.832,1.484-4.326,3.9-6.161,8.25-5.883.445.029.893-.037,1.334.01,10.969,1.16,18.4-1.39,26.039-11.713,20.5-27.7,62.213-23.5,79.139,6.55,2.324,4.133,4.871,5.3,9.332,5.257,22.875-.206,45.752.046,68.625-.2,5.713-.062,8.762,1.64,10.7,7.328,11.016,32.394,22.426,64.652,33.662,96.968,2.467,7.1.871,9.411-6.578,9.513-7.273.1-14.545.022-22.465.022v73.268h-9.473v-72.891h-11.584v72.711h-10.1v-72.475h-25.8c5.328,23.771,8.82,47.816,6.039,72.688h-9.012v-22.858c0-4.442.029-8.884-.008-13.326-.078-8.528-4-12.49-12.678-12.513-23.1-.061-46.2-.022-69.293-.023-18.656,0-37.312-.036-55.969.014-9.127.025-12.859,3.744-12.926,12.921C4128.207,1487.188,4128.27,1498.915,4128.27,1511.207Zm123.33-176.848c3.732,27.88-15.529,53.138-40.76,56.384-26.225,3.373-58.043-14.728-55.871-56.022a45.616,45.616,0,0,1-5.781-.4c-7.121-1.382-10.279,1.7-12.512,8.524-8.648,26.413-17.973,52.605-27.025,78.887-.66,1.917-1.172,3.886-1.879,6.245,6.186,0,11.518-.208,16.822.068,4.078.211,6.66-.971,9.352-4.431,9.32-12,21.463-20.236,36.92-21.079,18.811-1.026,37.689-1.062,56.535-.995,19.285.069,35.244,7.419,47.033,23.133,1.154,1.538,3.436,3.149,5.209,3.163,25.732.2,51.467.139,77.643.139-.654-2.165-1.1-3.851-1.668-5.494q-12.217-35.347-24.465-70.68c-1.949-5.611-2.465-13.472-6.437-16.155-4.344-2.933-11.934-1.224-18.107-1.253C4288.439,1334.3,4270.27,1334.359,4251.6,1334.359Zm23.373,118.706c-2.039-22.353-20.365-40.571-41.869-41.177-19.053-.536-38.133-.2-57.2-.189-10.412.006-19.5,3.892-27.311,10.458-9.439,7.935-15.121,18.01-16.174,30.908Zm-71.627-71.791c21.91.042,38.875-16.666,39.033-38.441a38.572,38.572,0,0,0-38.707-38.91c-21.25,0-39.09,17.829-38.953,38.916A38.982,38.982,0,0,0,4203.346,1381.274Z" transform="translate(-4095.77 -1293.941)" fill="#005067" stroke="#005067" stroke-linecap="round" stroke-linejoin="round" stroke-width="3"/>
        <path id="Tracciato_3781" data-name="Tracciato 3781" d="M4279.789,1360.89v-9.25c11.883,0,23.76-.15,35.621.209,1.342.041,3.355,2.776,3.773,4.563,4.531,19.34,8.842,38.732,13.129,58.128.777,3.532-.3,6.537-4.381,6.6-11.92.2-23.852.07-36.131.07v-9.5h29.816c-3.555-16.2-6.848-31.728-10.533-47.164-.361-1.518-3.1-3.431-4.809-3.5C4297.67,1360.7,4289.041,1360.89,4279.789,1360.89Z" transform="translate(-4115.863 -1300.238)" fill="#005067" stroke="#005067" stroke-linecap="round" stroke-linejoin="round" stroke-width="3"/>
        <path id="Tracciato_3782" data-name="Tracciato 3782" d="M4364.135,1423.609c-1.379.463-3.307,1.631-5.219,1.608-1.937-.024-4.969-.683-5.611-2-3.666-7.489-6.953-15.185-9.879-22.994-.531-1.432.719-4.3,2.059-5.413,1.016-.842,4.68-.556,5.109.282C4354.883,1403.469,4358.742,1412.061,4364.135,1423.609Z" transform="translate(-4122.795 -1304.899)" fill="#005067" stroke="#005067" stroke-linecap="round" stroke-linejoin="round" stroke-width="3"/>
      </g>
    </g>
  </g>
</svg>
