<svg xmlns="http://www.w3.org/2000/svg" xmlns:xlink="http://www.w3.org/1999/xlink" width="300" height="300" viewBox="0 0 300 300">
  <defs>
    <clipPath id="clip-offerte">
      <rect width="300" height="300"/>
    </clipPath>
  </defs>
  <g id="offerte" clip-path="url(#clip-offerte)">
    <g id="Raggruppa_10254" data-name="Raggruppa 10254" transform="translate(-1673.78 -1049.083)">
      <path id="Tracciato_4637" data-name="Tracciato 4637" d="M1973.779,1190.093c-8.067,15.015-15.851,30.185-24.253,45.006-15.634,27.588-31.62,54.973-47.462,82.44-8.325,14.43-20.6,17.908-34.878,9.682q-64.817-37.347-129.569-74.813c-6.671-3.854-8.337-9.594-3.865-13.4,3.94-3.35,7.733-1.6,11.524.6q37.1,21.506,74.233,42.942,27.375,15.826,54.753,31.634c7.386,4.26,10.477,3.445,14.737-3.922q33.516-57.969,66.984-115.969c4.308-7.479,3.506-10.461-3.851-14.708q-81.585-47.12-163.117-94.314c-4.812-2.8-8.845-3.018-14.024-1.054-25.908,9.82-51.971,19.225-77.963,28.823-8.833,3.26-9.465,4.477-7.912,13.331,4.883,27.921,9.647,55.87,14.748,83.755.541,2.963,2.583,5.934,4.649,8.27,3.071,3.47,4.125,6.854,1.1,10.565-3.045,3.732-6.865,3.52-10.626,1.017-6.169-4.1-8.955-10.248-10.137-17.3q-7.21-42.867-14.4-85.733c-2.477-14.974,1.641-21.994,16.175-27.375q44.2-16.358,88.484-32.494h6.282c4.587,2.313,9.3,4.412,13.75,6.975,52.36,30.179,104.609,60.553,157.083,90.534,8.575,4.9,15.241,10.611,17.552,20.481Z" transform="translate(0.001)" fill="#005067" stroke="#005067" stroke-width="4"/>
      <path id="Tracciato_4638" data-name="Tracciato 4638" d="M1796.1,1161.582a33.006,33.006,0,1,1-.3,66.01c-18.754.029-33.164-14.563-33.06-33.48C1762.842,1175.8,1777.526,1161.481,1796.1,1161.582Zm-18.513,32.072a18.259,18.259,0,0,0,17.229,19.28c9.6.625,18.707-7.6,19.337-17.453.632-9.877-8.007-19.079-18.115-19.3A18.306,18.306,0,0,0,1777.585,1193.653Z" transform="translate(-30.159 -32.037)" fill="#005067" stroke="#005067" stroke-width="4"/>
    </g>
  </g>
</svg>
