<svg xmlns="http://www.w3.org/2000/svg" xmlns:xlink="http://www.w3.org/1999/xlink" width="300" height="300" viewBox="0 0 300 300">
  <defs>
    <clipPath id="clip-Posizione">
      <rect width="300" height="300"/>
    </clipPath>
  </defs>
  <g id="Posizione" clip-path="url(#clip-Posizione)">
    <g id="Raggruppa_10292" data-name="Raggruppa 10292" transform="translate(-0.244 19)">
      <path id="Tracciato_4562" data-name="Tracciato 4562" d="M-1498.713,4656.063a7.444,7.444,0,0,1-3.672-1l-139.264-82.754-139.271,82.754a7.182,7.182,0,0,1-8.715-1.064,7.2,7.2,0,0,1-1.175-8.719l142.936-247.559a7.152,7.152,0,0,1,6.226-3.59,7.146,7.146,0,0,1,6.222,3.59l142.936,247.559a7.21,7.21,0,0,1-1.171,8.719A7.192,7.192,0,0,1-1498.713,4656.063Zm-142.936-99.293a7.153,7.153,0,0,1,3.668,1l119.3,70.883-122.967-212.977-122.974,212.977,119.306-70.883A7.122,7.122,0,0,1-1641.649,4556.771Z" transform="translate(1791.773 -4394.134)" fill="#2ea836"/>
    </g>
  </g>
</svg>
