<svg xmlns="http://www.w3.org/2000/svg" xmlns:xlink="http://www.w3.org/1999/xlink" width="300" height="300" viewBox="0 0 300 300">
  <defs>
    <clipPath id="clip-Primo_piano">
      <rect width="300" height="300"/>
    </clipPath>
  </defs>
  <g id="Primo_piano" data-name="Primo piano" clip-path="url(#clip-Primo_piano)">
    <path id="Tracciato_4567" data-name="Tracciato 4567" d="M973.931-305.425l.194-.175L1094.5-410.151a15.075,15.075,0,0,1,19.774,0l65.781,57.14a15.122,15.122,0,0,1,1.508,21.27,15.1,15.1,0,0,1-21.289,1.495L1104.39-378.8l-105.3,91.453V-144h210.58V-294.22A15.082,15.082,0,0,1,1224.74-309.3a15.082,15.082,0,0,1,15.077,15.076v165.3a15.04,15.04,0,0,1-15.077,15.077H984.008a15.074,15.074,0,0,1-15.077-15.077v-165.3l.007-.259v-.073l.006-.1.006-.344.017-.253.007-.031.006-.06.03-.423.032-.241a14.909,14.909,0,0,1,.851-3.5l.227-.586.03-.066.019-.042.127-.277.127-.278.019-.042.03-.066.29-.555a14.878,14.878,0,0,1,2.087-2.937l.162-.182.3-.3.043-.042.024-.024.175-.181.259-.235.067-.06Z" transform="translate(-953.853 413.846)" fill="#005067" fill-rule="evenodd"/>
  </g>
</svg>
