<svg xmlns="http://www.w3.org/2000/svg" xmlns:xlink="http://www.w3.org/1999/xlink" width="300" height="300" viewBox="0 0 300 300">
  <defs>
    <clipPath id="clip-Ristorante">
      <rect width="300" height="300"/>
    </clipPath>
  </defs>
  <g id="Ristorante" clip-path="url(#clip-Ristorante)">
    <g id="Raggruppa_10291" data-name="Raggruppa 10291" transform="translate(0 21)">
      <g id="Raggruppa_9878" data-name="Raggruppa 9878" transform="translate(20.535 135.352)">
        <path id="Tracciato_4556" data-name="Tracciato 4556" d="M-1914.289,4952.891h-172.352c-23.863,0-43.285-15.977-43.285-35.625V4829.68h13.965v87.586c0,11.492,13.43,21.2,29.32,21.2h172.352c15.891,0,29.324-9.7,29.324-21.2V4829.68H-1871v87.586C-1871,4936.914-1890.418,4952.891-1914.289,4952.891Z" transform="translate(2129.926 -4829.68)" fill="#2ea836"/>
      </g>
      <g id="Raggruppa_9879" data-name="Raggruppa 9879">
        <path id="Tracciato_4557" data-name="Tracciato 4557" d="M-1906.875,4830.2c-21.891,0-40.645-10.2-49.258-25.375-8.719,15.313-27.234,25.375-49.09,25.375-19.723,0-37.187-8.047-46.66-20.289-9.469,12.242-26.934,20.289-46.656,20.289-14.051,0-27.352-4.039-37.441-11.359-10.785-7.859-16.723-18.492-16.723-29.984a32.268,32.268,0,0,1,1.3-9.078,6.343,6.343,0,0,1,.473-1.211l38.582-77.094c6.859-13.352,23.363-21.945,42.07-21.945h135.914c18.844,0,35.387,8.68,42.152,22.117l37.738,76.961a6.331,6.331,0,0,1,.453,1.172,32.419,32.419,0,0,1,1.313,9.078c0,11.492-5.945,22.125-16.73,29.984C-1879.523,4826.164-1892.816,4830.2-1906.875,4830.2Zm-49.082-55.641a7.215,7.215,0,0,1,6.152,3.461,23.252,23.252,0,0,1,3.156,10.148c1.52,15.758,18.621,27.609,39.773,27.609,21.543,0,39.742-12.328,39.742-26.922a17.98,17.98,0,0,0-.582-4.508l-37.406-76.289c-4.242-8.406-16-14.109-29.238-14.109h-135.914c-13.148,0-24.887,5.656-29.2,14.07l-38.23,76.328a18.582,18.582,0,0,0-.578,4.508c0,14.594,18.2,26.922,39.746,26.922,20.1,0,37.469-10.625,39.531-24.2a7.192,7.192,0,0,1,7.125-6.133,7.193,7.193,0,0,1,7.129,6.133c2.063,13.578,19.426,24.2,39.531,24.2,21.035,0,37.773-11.687,39.8-27.82a25.324,25.324,0,0,1,3.223-9.766,7.225,7.225,0,0,1,6.156-3.633Z" transform="translate(2152.703 -4679.531)" fill="#2ea836"/>
      </g>
      <g id="Raggruppa_9880" data-name="Raggruppa 9880" transform="translate(102.734 195.562)">
        <path id="Tracciato_4558" data-name="Tracciato 4558" d="M-1961.562,4910.9h-69.969a7.225,7.225,0,0,1-7.215-7.227,7.212,7.212,0,0,1,7.215-7.211h69.969a7.212,7.212,0,0,1,7.215,7.211A7.225,7.225,0,0,1-1961.562,4910.9Z" transform="translate(2038.746 -4896.461)" fill="#2ea836"/>
      </g>
      <circle id="Ellisse_685" data-name="Ellisse 685" cx="7.212" cy="7.212" r="7.212" transform="translate(197.12 195.562)" fill="#2ea836"/>
      <circle id="Ellisse_686" data-name="Ellisse 686" cx="7.175" cy="7.175" r="7.175" transform="translate(93.326 84.608)" fill="#2ea836"/>
    </g>
  </g>
</svg>
