<svg xmlns="http://www.w3.org/2000/svg" xmlns:xlink="http://www.w3.org/1999/xlink" width="300" height="300" viewBox="0 0 300 300">
  <defs>
    <clipPath id="clip-Take_Away">
      <rect width="300" height="300"/>
    </clipPath>
  </defs>
  <g id="Take_Away" data-name="Take Away" clip-path="url(#clip-Take_Away)">
    <g id="Raggruppa_4107" data-name="Raggruppa 4107" transform="translate(-0.395 14)">
      <ellipse id="Ellisse_596" data-name="Ellisse 596" cx="102.734" cy="102.734" rx="102.734" ry="102.734" transform="translate(94.926)" fill="#e42313"/>
      <path id="Tracciato_2827" data-name="Tracciato 2827" d="M2164.725,4994.982a11.155,11.155,0,0,1-8.084-3.336,9.381,9.381,0,0,1-2.69-7.777l16.044-131.062c.622-5.061,5.253-8.873,10.78-8.873h126.109c5.521,0,10.157,3.813,10.774,8.873l4.525,27.854c3.374-1.754,6.938,5.734,10.681,4.334l-4.081-33.34c-1.261-10.277-10.675-18.021-21.9-18.021h-10.633a1.651,1.651,0,0,0,.026-.2v-25.529c0-5.789-6.247-10.5-13.921-10.5h-79.15c-7.684,0-13.932,4.715-13.932,10.5v25.529c0,.063.025.137.027.2h-8.527c-11.227,0-20.639,7.744-21.9,18.021l-16.045,131.07a19.261,19.261,0,0,0,5.466,15.777,22.893,22.893,0,0,0,16.427,6.775h133.663c-2.629-3.125-21.124-6.576-22.724-10.295Zm35.739-187.076c0-1.119,1.254-2.074,2.742-2.074h79.15c1.481,0,2.735.955,2.735,2.074v25.529a1.737,1.737,0,0,1-.055.2h-84.521a1.723,1.723,0,0,1-.052-.2Z" transform="translate(-2142.694 -4735.945)" fill="#005067" stroke="#005067" stroke-width="3"/>
      <path id="Tracciato_2828" data-name="Tracciato 2828" d="M2269.284,4831.967a92.34,92.34,0,0,0-34.69,6.57,76.64,76.64,0,0,0-9.059,4.359c-17.217,9.709-28.346,25-28.346,42.18a4.744,4.744,0,0,0,4.741,4.738h134.705a4.742,4.742,0,0,0,4.745-4.738C2341.381,4855.781,2309.04,4831.967,2269.284,4831.967Zm-29.98,48.365h-32.259c1.671-10.7,8.913-20.23,19.65-27.184a65.125,65.125,0,0,1,8.993-4.865,83.187,83.187,0,0,1,33.6-6.834c32.22,0,58.837,17.053,62.242,38.883Z" transform="translate(-2083.793 -4691.741)" fill="#005067" stroke="#005067" stroke-width="3"/>
      <path id="Tracciato_2829" data-name="Tracciato 2829" d="M2335.21,4863.219H2203.364a6.186,6.186,0,0,0-6.175,6.172,38.524,38.524,0,0,0,2.752,14.277,39.067,39.067,0,0,0,36.173,24.654h66.346a38.967,38.967,0,0,0,38.921-38.932A6.187,6.187,0,0,0,2335.21,4863.219Zm-32.75,35.613h-66.346a29.325,29.325,0,0,1-17.33-5.666,29.755,29.755,0,0,1-8.375-9.5,29.024,29.024,0,0,1-3.546-10.957h124.844A29.474,29.474,0,0,1,2302.46,4898.832Z" transform="translate(-2083.793 -4635.582)" fill="#005067" stroke="#005067" stroke-width="3"/>
      <path id="Tracciato_2830" data-name="Tracciato 2830" d="M2338.646,4861.172h-.144a4.746,4.746,0,0,0-4.6,4.893,3.763,3.763,0,0,1-1.038,2.7,3.87,3.87,0,0,1-2.713,1.217,3.717,3.717,0,0,1-2.782-1.035,3.756,3.756,0,0,1-1.192-2.631,4.839,4.839,0,0,0-.152-1.018,13.1,13.1,0,0,0-4.083-8.27,13.362,13.362,0,0,0-22.452,8.975,4.222,4.222,0,0,0-.044.563,3.866,3.866,0,0,1-7.727.238,4.661,4.661,0,0,0-.147-1.008,13.088,13.088,0,0,0-4.083-8.268,13.4,13.4,0,0,0-18.844.582,13.168,13.168,0,0,0-3.266,6.191,4.712,4.712,0,0,0-.409,2.033,3.76,3.76,0,0,1-1.037,2.711,3.92,3.92,0,0,1-5.489.162,3.721,3.721,0,0,1-1.2-2.627,2.625,2.625,0,0,0-.042-.3,13.281,13.281,0,0,0-13.731-12.57c-.279.008-.54.09-.81.105a13.314,13.314,0,0,0-9.01,4.74,13.141,13.141,0,0,0-3.093,7.676,4.211,4.211,0,0,0-.042.611,3.865,3.865,0,0,1-7.726.236,4.8,4.8,0,0,0-.146-1.01,13.216,13.216,0,0,0-13.625-11.854,13.371,13.371,0,0,0-9.306,4.16,13.179,13.179,0,0,0-3.633,9.52,4.737,4.737,0,0,0,4.737,4.6h.15a4.741,4.741,0,0,0,4.6-4.893,3.72,3.72,0,0,1,1.034-2.7,3.969,3.969,0,0,1,2.712-1.215,3.916,3.916,0,0,1,2.782,1.053,3.761,3.761,0,0,1,1.207,2.635,4.364,4.364,0,0,0,.141,1.02,13.3,13.3,0,0,0,13.211,11.842c.134,0,.278,0,.415-.01a13.389,13.389,0,0,0,12.906-12.52,4.289,4.289,0,0,0,.047-.6,3.828,3.828,0,0,1,3.7-3.91h.044a3.86,3.86,0,0,1,3.981,3.672,4.611,4.611,0,0,0,.15,1.023,13.058,13.058,0,0,0,4.082,8.254,13.239,13.239,0,0,0,9.108,3.588c.144,0,.282,0,.431-.006a13.345,13.345,0,0,0,9.3-4.16,13.179,13.179,0,0,0,3.266-6.189,4.647,4.647,0,0,0,.407-2.045,3.736,3.736,0,0,1,1.032-2.7,3.982,3.982,0,0,1,2.717-1.211,3.841,3.841,0,0,1,3.979,3.672,4.394,4.394,0,0,0,.153,1.039,13.3,13.3,0,0,0,13.205,11.828c.136,0,.281,0,.417-.006a13.346,13.346,0,0,0,12.917-12.574,4.441,4.441,0,0,0,.03-.543,3.854,3.854,0,0,1,3.751-3.92,3.647,3.647,0,0,1,2.782,1.043,3.751,3.751,0,0,1,1.2,2.631,4.29,4.29,0,0,0,.147,1,13.144,13.144,0,0,0,4.081,8.3,13.339,13.339,0,0,0,9.115,3.578c.143,0,.287,0,.428-.01a13.29,13.29,0,0,0,9.3-4.164,13.122,13.122,0,0,0,3.64-9.523A4.743,4.743,0,0,0,2338.646,4861.172Z" transform="translate(-2085.79 -4653.168)" fill="#005067" stroke="#005067" stroke-width="3"/>
    </g>
  </g>
</svg>
