<svg xmlns="http://www.w3.org/2000/svg" xmlns:xlink="http://www.w3.org/1999/xlink" width="300" height="300" viewBox="0 0 300 300">
  <defs>
    <filter id="Rettangolo_77" x="-18.43" y="25.346" width="261.732" height="261.727" filterUnits="userSpaceOnUse">
      <feOffset dy="6" input="SourceAlpha"/>
      <feGaussianBlur stdDeviation="6" result="blur"/>
      <feFlood flood-opacity="0.051"/>
      <feComposite operator="in" in2="blur"/>
      <feComposite in="SourceGraphic"/>
    </filter>
    <clipPath id="clip-User">
      <rect width="300" height="300"/>
    </clipPath>
  </defs>
  <g id="User" clip-path="url(#clip-User)">
    <g id="Raggruppa_3697" data-name="Raggruppa 3697" transform="translate(-0.43 14)">
      <g transform="matrix(1, 0, 0, 1, 0.43, -14)" filter="url(#Rettangolo_77)">
        <rect id="Rettangolo_77-2" data-name="Rettangolo 77" width="225.732" height="225.727" rx="112.863" transform="translate(-0.43 37.35)" fill="#ff800f"/>
      </g>
      <g id="noun_Gentleman_518257" transform="translate(75.225 0)">
        <g id="Raggruppa_148" data-name="Raggruppa 148">
          <path id="Tracciato_108" data-name="Tracciato 108" d="M199.447,147.955c22.986,0,42.5-17.426,49.446-41.481a77.428,77.428,0,0,0,15.555-47.629c-.855-34.692-31.859-58.373-65.7-52.065a50.993,50.993,0,0,1-32.34-4.116,7.5,7.5,0,0,0-8.339,1.283c-15.021,13.791-23.574,34.1-23.574,55.7a77.17,77.17,0,0,0,15.609,46.934C157,130.582,176.515,147.955,199.447,147.955Zm0-15.128c-20.42,0-37.044-20.42-37.044-45.49,0-12.134,3.9-23.52,10.744-32.02,15.876,21.97,37.044,31.539,63.183,28.545.054,1.176.107,2.3.107,3.475C236.491,112.407,219.867,132.827,199.447,132.827ZM164.916,18.433a65.913,65.913,0,0,0,36.83,3.1C226.121,16.775,248.2,34.041,249.321,58.9c-.16,4.009-.534,7.644-1.016,11.119a7.587,7.587,0,0,0-7-2.245c-26.674,5.4-45.865-3.528-60.4-28.224h0a7.544,7.544,0,0,0-11.226-2.031h0c-9.3,7.537-16.036,18.282-19.564,30.416a61.814,61.814,0,0,1-.588-8.339C149.574,43.984,155.08,29.231,164.916,18.433Z" transform="translate(-86.872 -1.932)" fill="#005067"/>
          <path id="Tracciato_109" data-name="Tracciato 109" d="M240.617,317.953a238.686,238.686,0,0,0-165.229,0A46.388,46.388,0,0,0,45.4,361.519v44.688a7.528,7.528,0,0,0,7.537,7.537H263.068a7.528,7.528,0,0,0,7.537-7.537V361.519A46.517,46.517,0,0,0,240.617,317.953Zm-57.624,1.818-25.017,46.88-24.963-46.88A223.21,223.21,0,0,1,182.993,319.771Zm-100.816,78.9H60.421v-37.1a31.622,31.622,0,0,1,10.9-23.894,109.116,109.116,0,0,1,10.8,47.362v13.631Zm136.47-13.685v13.685H97.3V384.986a124.452,124.452,0,0,0-12.562-54.257,223.379,223.379,0,0,1,32.447-8.606l34.158,64.146a7.528,7.528,0,0,0,13.31,0l34.158-64.146a223.375,223.375,0,0,1,32.447,8.606A123.76,123.76,0,0,0,218.647,384.986Zm36.884,13.685H233.775V384.986a109.883,109.883,0,0,1,10.8-47.361,31.623,31.623,0,0,1,10.9,23.894v37.151Z" transform="translate(-45.4 -142.156)" fill="#005067"/>
        </g>
      </g>
    </g>
  </g>
</svg>
